<svg xmlns="http://www.w3.org/2000/svg" xmlns:xlink="http://www.w3.org/1999/xlink" width="500" zoomAndPan="magnify" viewBox="0 0 375 374.999991" height="500" preserveAspectRatio="xMidYMid meet" version="1.0"><defs><g/><clipPath id="id1"><path d="M 111 105.542969 L 264.527344 105.542969 L 264.527344 259 L 111 259 Z M 111 105.542969 " clip-rule="nonzero"/></clipPath><clipPath id="id2"><path d="M 264.097656 182.417969 C 264.097656 183.667969 264.066406 184.921875 264.003906 186.167969 C 263.941406 187.417969 263.851562 188.667969 263.726562 189.910156 C 263.605469 191.15625 263.453125 192.398438 263.269531 193.636719 C 263.085938 194.871094 262.871094 196.105469 262.628906 197.332031 C 262.382812 198.558594 262.109375 199.78125 261.804688 200.992188 C 261.5 202.207031 261.167969 203.414062 260.804688 204.609375 C 260.441406 205.804688 260.050781 206.996094 259.628906 208.171875 C 259.207031 209.351562 258.757812 210.515625 258.277344 211.671875 C 257.796875 212.828125 257.292969 213.972656 256.757812 215.101562 C 256.222656 216.234375 255.660156 217.351562 255.070312 218.453125 C 254.480469 219.558594 253.863281 220.644531 253.21875 221.71875 C 252.578125 222.792969 251.90625 223.847656 251.214844 224.890625 C 250.519531 225.929688 249.796875 226.953125 249.050781 227.957031 C 248.308594 228.960938 247.539062 229.949219 246.742188 230.914062 C 245.949219 231.882812 245.132812 232.828125 244.292969 233.753906 C 243.453125 234.683594 242.589844 235.589844 241.707031 236.472656 C 240.820312 237.359375 239.914062 238.21875 238.988281 239.058594 C 238.0625 239.902344 237.113281 240.71875 236.148438 241.511719 C 235.179688 242.304688 234.195312 243.074219 233.191406 243.820312 C 232.183594 244.566406 231.164062 245.285156 230.121094 245.980469 C 229.082031 246.675781 228.023438 247.34375 226.953125 247.988281 C 225.878906 248.628906 224.789062 249.246094 223.6875 249.835938 C 222.585938 250.425781 221.46875 250.988281 220.335938 251.523438 C 219.203125 252.058594 218.0625 252.566406 216.90625 253.042969 C 215.75 253.523438 214.582031 253.972656 213.40625 254.394531 C 212.226562 254.816406 211.039062 255.207031 209.84375 255.570312 C 208.644531 255.933594 207.441406 256.269531 206.226562 256.574219 C 205.011719 256.875 203.792969 257.148438 202.566406 257.394531 C 201.339844 257.636719 200.105469 257.851562 198.867188 258.035156 C 197.628906 258.21875 196.390625 258.371094 195.144531 258.496094 C 193.898438 258.617188 192.652344 258.710938 191.402344 258.769531 C 190.152344 258.832031 188.902344 258.863281 187.652344 258.863281 C 186.402344 258.863281 185.148438 258.832031 183.902344 258.769531 C 182.652344 258.710938 181.402344 258.617188 180.160156 258.496094 C 178.914062 258.371094 177.671875 258.21875 176.433594 258.035156 C 175.199219 257.851562 173.964844 257.636719 172.738281 257.394531 C 171.511719 257.148438 170.289062 256.875 169.078125 256.574219 C 167.863281 256.269531 166.65625 255.933594 165.460938 255.570312 C 164.265625 255.207031 163.078125 254.816406 161.898438 254.394531 C 160.71875 253.972656 159.554688 253.523438 158.398438 253.042969 C 157.242188 252.566406 156.097656 252.058594 154.96875 251.523438 C 153.835938 250.988281 152.71875 250.425781 151.617188 249.835938 C 150.511719 249.246094 149.425781 248.628906 148.351562 247.988281 C 147.277344 247.34375 146.222656 246.675781 145.179688 245.980469 C 144.140625 245.285156 143.117188 244.566406 142.113281 243.820312 C 141.109375 243.074219 140.121094 242.304688 139.15625 241.511719 C 138.1875 240.71875 137.242188 239.902344 136.316406 239.058594 C 135.386719 238.21875 134.480469 237.359375 133.597656 236.472656 C 132.710938 235.589844 131.851562 234.683594 131.011719 233.753906 C 130.167969 232.828125 129.351562 231.882812 128.558594 230.914062 C 127.765625 229.949219 126.996094 228.960938 126.25 227.957031 C 125.503906 226.953125 124.785156 225.929688 124.089844 224.890625 C 123.394531 223.847656 122.726562 222.792969 122.082031 221.71875 C 121.441406 220.644531 120.824219 219.558594 120.234375 218.453125 C 119.644531 217.351562 119.082031 216.234375 118.546875 215.101562 C 118.011719 213.972656 117.503906 212.828125 117.027344 211.671875 C 116.546875 210.515625 116.097656 209.351562 115.675781 208.171875 C 115.253906 206.996094 114.863281 205.804688 114.5 204.609375 C 114.136719 203.414062 113.800781 202.207031 113.5 200.992188 C 113.195312 199.78125 112.921875 198.558594 112.675781 197.332031 C 112.433594 196.105469 112.21875 194.871094 112.035156 193.636719 C 111.851562 192.398438 111.699219 191.15625 111.574219 189.910156 C 111.453125 188.667969 111.359375 187.417969 111.300781 186.167969 C 111.238281 184.921875 111.207031 183.667969 111.207031 182.417969 C 111.207031 181.167969 111.238281 179.917969 111.300781 178.667969 C 111.359375 177.417969 111.453125 176.171875 111.574219 174.925781 C 111.699219 173.679688 111.851562 172.441406 112.035156 171.203125 C 112.21875 169.964844 112.433594 168.730469 112.675781 167.503906 C 112.921875 166.277344 113.195312 165.058594 113.5 163.84375 C 113.800781 162.628906 114.136719 161.425781 114.5 160.226562 C 114.863281 159.03125 115.253906 157.84375 115.675781 156.664062 C 116.097656 155.488281 116.546875 154.320312 117.027344 153.164062 C 117.503906 152.007812 118.011719 150.867188 118.546875 149.734375 C 119.082031 148.605469 119.644531 147.488281 120.234375 146.382812 C 120.824219 145.28125 121.441406 144.191406 122.082031 143.117188 C 122.726562 142.046875 123.394531 140.988281 124.089844 139.949219 C 124.785156 138.910156 125.503906 137.886719 126.25 136.878906 C 126.996094 135.875 127.765625 134.890625 128.558594 133.921875 C 129.351562 132.957031 130.167969 132.007812 131.011719 131.082031 C 131.851562 130.15625 132.710938 129.25 133.597656 128.363281 C 134.480469 127.480469 135.386719 126.617188 136.316406 125.777344 C 137.242188 124.9375 138.1875 124.121094 139.15625 123.328125 C 140.121094 122.53125 141.109375 121.761719 142.113281 121.019531 C 143.117188 120.273438 144.140625 119.550781 145.179688 118.859375 C 146.222656 118.164062 147.277344 117.492188 148.351562 116.851562 C 149.425781 116.207031 150.511719 115.589844 151.617188 115 C 152.71875 114.410156 153.835938 113.847656 154.96875 113.3125 C 156.097656 112.777344 157.242188 112.273438 158.398438 111.792969 C 159.554688 111.316406 160.71875 110.863281 161.898438 110.441406 C 163.078125 110.019531 164.265625 109.628906 165.460938 109.265625 C 166.65625 108.902344 167.863281 108.570312 169.078125 108.265625 C 170.289062 107.960938 171.511719 107.6875 172.738281 107.441406 C 173.964844 107.199219 175.199219 106.984375 176.433594 106.800781 C 177.671875 106.617188 178.914062 106.464844 180.160156 106.34375 C 181.402344 106.21875 182.652344 106.128906 183.902344 106.066406 C 185.148438 106.003906 186.402344 105.972656 187.652344 105.972656 C 188.902344 105.972656 190.152344 106.003906 191.402344 106.066406 C 192.652344 106.128906 193.898438 106.21875 195.144531 106.34375 C 196.390625 106.464844 197.628906 106.617188 198.867188 106.800781 C 200.105469 106.984375 201.339844 107.199219 202.566406 107.441406 C 203.792969 107.6875 205.011719 107.960938 206.226562 108.265625 C 207.441406 108.570312 208.644531 108.902344 209.84375 109.265625 C 211.039062 109.628906 212.226562 110.019531 213.40625 110.441406 C 214.582031 110.863281 215.75 111.316406 216.90625 111.792969 C 218.0625 112.273438 219.203125 112.777344 220.335938 113.3125 C 221.46875 113.847656 222.585938 114.410156 223.6875 115 C 224.789062 115.589844 225.878906 116.207031 226.953125 116.851562 C 228.023438 117.492188 229.082031 118.164062 230.121094 118.859375 C 231.164062 119.550781 232.183594 120.273438 233.191406 121.019531 C 234.195312 121.761719 235.179688 122.53125 236.148438 123.328125 C 237.113281 124.121094 238.0625 124.9375 238.988281 125.777344 C 239.914062 126.617188 240.820312 127.480469 241.707031 128.363281 C 242.589844 129.25 243.453125 130.15625 244.292969 131.082031 C 245.132812 132.007812 245.949219 132.957031 246.742188 133.921875 C 247.539062 134.890625 248.308594 135.875 249.050781 136.878906 C 249.796875 137.886719 250.519531 138.910156 251.214844 139.949219 C 251.90625 140.988281 252.578125 142.046875 253.21875 143.117188 C 253.863281 144.191406 254.480469 145.28125 255.070312 146.382812 C 255.660156 147.488281 256.222656 148.605469 256.757812 149.734375 C 257.292969 150.867188 257.796875 152.007812 258.277344 153.164062 C 258.757812 154.320312 259.207031 155.488281 259.628906 156.664062 C 260.050781 157.84375 260.441406 159.03125 260.804688 160.226562 C 261.167969 161.425781 261.5 162.628906 261.804688 163.84375 C 262.109375 165.058594 262.382812 166.277344 262.628906 167.503906 C 262.871094 168.730469 263.085938 169.964844 263.269531 171.203125 C 263.453125 172.441406 263.605469 173.679688 263.726562 174.925781 C 263.851562 176.171875 263.941406 177.417969 264.003906 178.667969 C 264.066406 179.917969 264.097656 181.167969 264.097656 182.417969 Z M 264.097656 182.417969 " clip-rule="nonzero"/></clipPath><linearGradient x1="48.842116" gradientTransform="matrix(0.3075, 0, 0, 0.3075, 110.776651, 105.543757)" y1="-32.394392" x2="451.157622" gradientUnits="userSpaceOnUse" y2="532.394568" id="id3"><stop stop-opacity="1" stop-color="rgb(51.399231%, 22.698975%, 70.599365%)" offset="0"/><stop stop-opacity="1" stop-color="rgb(51.399231%, 22.698975%, 70.599365%)" offset="0.03125"/><stop stop-opacity="1" stop-color="rgb(51.399231%, 22.698975%, 70.599365%)" offset="0.046875"/><stop stop-opacity="1" stop-color="rgb(51.455688%, 22.685242%, 70.527649%)" offset="0.0546875"/><stop stop-opacity="1" stop-color="rgb(51.724243%, 22.622681%, 70.196533%)" offset="0.0585938"/><stop stop-opacity="1" stop-color="rgb(51.934814%, 22.572327%, 69.935608%)" offset="0.0625"/><stop stop-opacity="1" stop-color="rgb(52.145386%, 22.521973%, 69.674683%)" offset="0.0664062"/><stop stop-opacity="1" stop-color="rgb(52.357483%, 22.473145%, 69.413757%)" offset="0.0703125"/><stop stop-opacity="1" stop-color="rgb(52.568054%, 22.422791%, 69.151306%)" offset="0.0742188"/><stop stop-opacity="1" stop-color="rgb(52.778625%, 22.372437%, 68.890381%)" offset="0.078125"/><stop stop-opacity="1" stop-color="rgb(52.989197%, 22.322083%, 68.629456%)" offset="0.0820313"/><stop stop-opacity="1" stop-color="rgb(53.199768%, 22.273254%, 68.36853%)" offset="0.0859375"/><stop stop-opacity="1" stop-color="rgb(53.410339%, 22.2229%, 68.107605%)" offset="0.0898438"/><stop stop-opacity="1" stop-color="rgb(53.622437%, 22.174072%, 67.84668%)" offset="0.09375"/><stop stop-opacity="1" stop-color="rgb(53.833008%, 22.123718%, 67.584229%)" offset="0.0976562"/><stop stop-opacity="1" stop-color="rgb(54.043579%, 22.073364%, 67.323303%)" offset="0.101562"/><stop stop-opacity="1" stop-color="rgb(54.25415%, 22.02301%, 67.062378%)" offset="0.105469"/><stop stop-opacity="1" stop-color="rgb(54.466248%, 21.974182%, 66.801453%)" offset="0.109375"/><stop stop-opacity="1" stop-color="rgb(54.676819%, 21.923828%, 66.540527%)" offset="0.113281"/><stop stop-opacity="1" stop-color="rgb(54.88739%, 21.875%, 66.279602%)" offset="0.117188"/><stop stop-opacity="1" stop-color="rgb(55.097961%, 21.824646%, 66.017151%)" offset="0.121094"/><stop stop-opacity="1" stop-color="rgb(55.310059%, 21.774292%, 65.756226%)" offset="0.125"/><stop stop-opacity="1" stop-color="rgb(55.52063%, 21.723938%, 65.4953%)" offset="0.128906"/><stop stop-opacity="1" stop-color="rgb(55.731201%, 21.67511%, 65.234375%)" offset="0.132812"/><stop stop-opacity="1" stop-color="rgb(55.941772%, 21.624756%, 64.971924%)" offset="0.136719"/><stop stop-opacity="1" stop-color="rgb(56.152344%, 21.575928%, 64.710999%)" offset="0.140625"/><stop stop-opacity="1" stop-color="rgb(56.362915%, 21.525574%, 64.450073%)" offset="0.144531"/><stop stop-opacity="1" stop-color="rgb(56.575012%, 21.47522%, 64.189148%)" offset="0.148438"/><stop stop-opacity="1" stop-color="rgb(56.785583%, 21.424866%, 63.928223%)" offset="0.152344"/><stop stop-opacity="1" stop-color="rgb(56.996155%, 21.376038%, 63.667297%)" offset="0.15625"/><stop stop-opacity="1" stop-color="rgb(57.206726%, 21.325684%, 63.404846%)" offset="0.160156"/><stop stop-opacity="1" stop-color="rgb(57.418823%, 21.276855%, 63.143921%)" offset="0.164063"/><stop stop-opacity="1" stop-color="rgb(57.629395%, 21.226501%, 62.882996%)" offset="0.167969"/><stop stop-opacity="1" stop-color="rgb(57.839966%, 21.176147%, 62.62207%)" offset="0.171875"/><stop stop-opacity="1" stop-color="rgb(58.050537%, 21.125793%, 62.361145%)" offset="0.175781"/><stop stop-opacity="1" stop-color="rgb(58.262634%, 21.076965%, 62.10022%)" offset="0.179688"/><stop stop-opacity="1" stop-color="rgb(58.473206%, 21.026611%, 61.837769%)" offset="0.183594"/><stop stop-opacity="1" stop-color="rgb(58.683777%, 20.977783%, 61.576843%)" offset="0.1875"/><stop stop-opacity="1" stop-color="rgb(58.894348%, 20.927429%, 61.315918%)" offset="0.191406"/><stop stop-opacity="1" stop-color="rgb(59.106445%, 20.877075%, 61.054993%)" offset="0.195312"/><stop stop-opacity="1" stop-color="rgb(59.317017%, 20.826721%, 60.794067%)" offset="0.199219"/><stop stop-opacity="1" stop-color="rgb(59.527588%, 20.777893%, 60.533142%)" offset="0.203125"/><stop stop-opacity="1" stop-color="rgb(59.738159%, 20.727539%, 60.270691%)" offset="0.207031"/><stop stop-opacity="1" stop-color="rgb(59.94873%, 20.678711%, 60.009766%)" offset="0.210938"/><stop stop-opacity="1" stop-color="rgb(60.159302%, 20.628357%, 59.74884%)" offset="0.214844"/><stop stop-opacity="1" stop-color="rgb(60.371399%, 20.578003%, 59.487915%)" offset="0.21875"/><stop stop-opacity="1" stop-color="rgb(60.58197%, 20.527649%, 59.225464%)" offset="0.222656"/><stop stop-opacity="1" stop-color="rgb(60.792542%, 20.478821%, 58.964539%)" offset="0.226562"/><stop stop-opacity="1" stop-color="rgb(61.003113%, 20.428467%, 58.703613%)" offset="0.230469"/><stop stop-opacity="1" stop-color="rgb(61.21521%, 20.378113%, 58.442688%)" offset="0.234375"/><stop stop-opacity="1" stop-color="rgb(61.425781%, 20.327759%, 58.181763%)" offset="0.238281"/><stop stop-opacity="1" stop-color="rgb(61.636353%, 20.278931%, 57.920837%)" offset="0.242188"/><stop stop-opacity="1" stop-color="rgb(61.846924%, 20.228577%, 57.658386%)" offset="0.246094"/><stop stop-opacity="1" stop-color="rgb(62.059021%, 20.179749%, 57.397461%)" offset="0.25"/><stop stop-opacity="1" stop-color="rgb(62.269592%, 20.129395%, 57.136536%)" offset="0.253906"/><stop stop-opacity="1" stop-color="rgb(62.480164%, 20.079041%, 56.87561%)" offset="0.257812"/><stop stop-opacity="1" stop-color="rgb(62.690735%, 20.028687%, 56.614685%)" offset="0.261719"/><stop stop-opacity="1" stop-color="rgb(62.901306%, 19.979858%, 56.35376%)" offset="0.265625"/><stop stop-opacity="1" stop-color="rgb(63.111877%, 19.929504%, 56.091309%)" offset="0.269531"/><stop stop-opacity="1" stop-color="rgb(63.323975%, 19.880676%, 55.830383%)" offset="0.273438"/><stop stop-opacity="1" stop-color="rgb(63.534546%, 19.830322%, 55.569458%)" offset="0.277344"/><stop stop-opacity="1" stop-color="rgb(63.745117%, 19.779968%, 55.308533%)" offset="0.28125"/><stop stop-opacity="1" stop-color="rgb(63.955688%, 19.729614%, 55.046082%)" offset="0.285156"/><stop stop-opacity="1" stop-color="rgb(64.167786%, 19.680786%, 54.785156%)" offset="0.289063"/><stop stop-opacity="1" stop-color="rgb(64.378357%, 19.630432%, 54.524231%)" offset="0.292969"/><stop stop-opacity="1" stop-color="rgb(64.588928%, 19.581604%, 54.263306%)" offset="0.296875"/><stop stop-opacity="1" stop-color="rgb(64.7995%, 19.53125%, 54.00238%)" offset="0.300781"/><stop stop-opacity="1" stop-color="rgb(65.011597%, 19.480896%, 53.741455%)" offset="0.304688"/><stop stop-opacity="1" stop-color="rgb(65.222168%, 19.430542%, 53.479004%)" offset="0.308594"/><stop stop-opacity="1" stop-color="rgb(65.432739%, 19.381714%, 53.218079%)" offset="0.3125"/><stop stop-opacity="1" stop-color="rgb(65.643311%, 19.33136%, 52.957153%)" offset="0.316406"/><stop stop-opacity="1" stop-color="rgb(65.855408%, 19.282532%, 52.696228%)" offset="0.320313"/><stop stop-opacity="1" stop-color="rgb(66.065979%, 19.232178%, 52.435303%)" offset="0.324219"/><stop stop-opacity="1" stop-color="rgb(66.27655%, 19.181824%, 52.174377%)" offset="0.328125"/><stop stop-opacity="1" stop-color="rgb(66.487122%, 19.13147%, 51.911926%)" offset="0.332031"/><stop stop-opacity="1" stop-color="rgb(66.697693%, 19.082642%, 51.651001%)" offset="0.335938"/><stop stop-opacity="1" stop-color="rgb(66.908264%, 19.032288%, 51.390076%)" offset="0.339844"/><stop stop-opacity="1" stop-color="rgb(67.120361%, 18.983459%, 51.12915%)" offset="0.34375"/><stop stop-opacity="1" stop-color="rgb(67.330933%, 18.933105%, 50.868225%)" offset="0.347656"/><stop stop-opacity="1" stop-color="rgb(67.541504%, 18.882751%, 50.6073%)" offset="0.351563"/><stop stop-opacity="1" stop-color="rgb(67.752075%, 18.832397%, 50.344849%)" offset="0.355469"/><stop stop-opacity="1" stop-color="rgb(67.964172%, 18.783569%, 50.083923%)" offset="0.359375"/><stop stop-opacity="1" stop-color="rgb(68.174744%, 18.733215%, 49.822998%)" offset="0.363281"/><stop stop-opacity="1" stop-color="rgb(68.385315%, 18.684387%, 49.562073%)" offset="0.367188"/><stop stop-opacity="1" stop-color="rgb(68.595886%, 18.634033%, 49.299622%)" offset="0.371094"/><stop stop-opacity="1" stop-color="rgb(68.807983%, 18.583679%, 49.038696%)" offset="0.375"/><stop stop-opacity="1" stop-color="rgb(69.018555%, 18.533325%, 48.777771%)" offset="0.378906"/><stop stop-opacity="1" stop-color="rgb(69.229126%, 18.484497%, 48.516846%)" offset="0.382812"/><stop stop-opacity="1" stop-color="rgb(69.439697%, 18.434143%, 48.25592%)" offset="0.386719"/><stop stop-opacity="1" stop-color="rgb(69.650269%, 18.383789%, 47.994995%)" offset="0.390625"/><stop stop-opacity="1" stop-color="rgb(69.86084%, 18.333435%, 47.732544%)" offset="0.394531"/><stop stop-opacity="1" stop-color="rgb(70.072937%, 18.284607%, 47.471619%)" offset="0.398438"/><stop stop-opacity="1" stop-color="rgb(70.283508%, 18.234253%, 47.210693%)" offset="0.402344"/><stop stop-opacity="1" stop-color="rgb(70.49408%, 18.185425%, 46.949768%)" offset="0.40625"/><stop stop-opacity="1" stop-color="rgb(70.704651%, 18.135071%, 46.688843%)" offset="0.410156"/><stop stop-opacity="1" stop-color="rgb(70.916748%, 18.084717%, 46.427917%)" offset="0.414062"/><stop stop-opacity="1" stop-color="rgb(71.127319%, 18.034363%, 46.165466%)" offset="0.417969"/><stop stop-opacity="1" stop-color="rgb(71.337891%, 17.985535%, 45.904541%)" offset="0.421875"/><stop stop-opacity="1" stop-color="rgb(71.548462%, 17.935181%, 45.643616%)" offset="0.425781"/><stop stop-opacity="1" stop-color="rgb(71.760559%, 17.886353%, 45.38269%)" offset="0.429688"/><stop stop-opacity="1" stop-color="rgb(71.97113%, 17.835999%, 45.121765%)" offset="0.433594"/><stop stop-opacity="1" stop-color="rgb(72.181702%, 17.785645%, 44.86084%)" offset="0.4375"/><stop stop-opacity="1" stop-color="rgb(72.392273%, 17.735291%, 44.598389%)" offset="0.441406"/><stop stop-opacity="1" stop-color="rgb(72.60437%, 17.686462%, 44.337463%)" offset="0.445312"/><stop stop-opacity="1" stop-color="rgb(72.814941%, 17.636108%, 44.076538%)" offset="0.449219"/><stop stop-opacity="1" stop-color="rgb(73.025513%, 17.58728%, 43.815613%)" offset="0.453125"/><stop stop-opacity="1" stop-color="rgb(73.236084%, 17.536926%, 43.553162%)" offset="0.457031"/><stop stop-opacity="1" stop-color="rgb(73.446655%, 17.486572%, 43.292236%)" offset="0.460938"/><stop stop-opacity="1" stop-color="rgb(73.657227%, 17.436218%, 43.031311%)" offset="0.464844"/><stop stop-opacity="1" stop-color="rgb(73.869324%, 17.38739%, 42.770386%)" offset="0.46875"/><stop stop-opacity="1" stop-color="rgb(74.079895%, 17.337036%, 42.50946%)" offset="0.472656"/><stop stop-opacity="1" stop-color="rgb(74.290466%, 17.288208%, 42.248535%)" offset="0.476562"/><stop stop-opacity="1" stop-color="rgb(74.501038%, 17.237854%, 41.986084%)" offset="0.480469"/><stop stop-opacity="1" stop-color="rgb(74.713135%, 17.1875%, 41.725159%)" offset="0.484375"/><stop stop-opacity="1" stop-color="rgb(74.923706%, 17.137146%, 41.464233%)" offset="0.488281"/><stop stop-opacity="1" stop-color="rgb(75.134277%, 17.088318%, 41.203308%)" offset="0.492188"/><stop stop-opacity="1" stop-color="rgb(75.344849%, 17.037964%, 40.942383%)" offset="0.496094"/><stop stop-opacity="1" stop-color="rgb(75.556946%, 16.989136%, 40.681458%)" offset="0.5"/><stop stop-opacity="1" stop-color="rgb(75.767517%, 16.938782%, 40.419006%)" offset="0.503906"/><stop stop-opacity="1" stop-color="rgb(75.978088%, 16.888428%, 40.158081%)" offset="0.507812"/><stop stop-opacity="1" stop-color="rgb(76.18866%, 16.838074%, 39.897156%)" offset="0.511719"/><stop stop-opacity="1" stop-color="rgb(76.399231%, 16.789246%, 39.63623%)" offset="0.515625"/><stop stop-opacity="1" stop-color="rgb(76.609802%, 16.738892%, 39.373779%)" offset="0.519531"/><stop stop-opacity="1" stop-color="rgb(76.821899%, 16.690063%, 39.112854%)" offset="0.523438"/><stop stop-opacity="1" stop-color="rgb(77.032471%, 16.639709%, 38.851929%)" offset="0.527344"/><stop stop-opacity="1" stop-color="rgb(77.243042%, 16.589355%, 38.591003%)" offset="0.53125"/><stop stop-opacity="1" stop-color="rgb(77.453613%, 16.539001%, 38.330078%)" offset="0.535156"/><stop stop-opacity="1" stop-color="rgb(77.66571%, 16.490173%, 38.069153%)" offset="0.539063"/><stop stop-opacity="1" stop-color="rgb(77.876282%, 16.439819%, 37.806702%)" offset="0.542969"/><stop stop-opacity="1" stop-color="rgb(78.086853%, 16.389465%, 37.545776%)" offset="0.546875"/><stop stop-opacity="1" stop-color="rgb(78.297424%, 16.339111%, 37.284851%)" offset="0.550781"/><stop stop-opacity="1" stop-color="rgb(78.509521%, 16.290283%, 37.023926%)" offset="0.554688"/><stop stop-opacity="1" stop-color="rgb(78.720093%, 16.239929%, 36.763%)" offset="0.558594"/><stop stop-opacity="1" stop-color="rgb(78.930664%, 16.191101%, 36.502075%)" offset="0.5625"/><stop stop-opacity="1" stop-color="rgb(79.141235%, 16.140747%, 36.239624%)" offset="0.566406"/><stop stop-opacity="1" stop-color="rgb(79.353333%, 16.090393%, 35.978699%)" offset="0.570313"/><stop stop-opacity="1" stop-color="rgb(79.563904%, 16.040039%, 35.717773%)" offset="0.574219"/><stop stop-opacity="1" stop-color="rgb(79.774475%, 15.991211%, 35.456848%)" offset="0.578125"/><stop stop-opacity="1" stop-color="rgb(79.985046%, 15.940857%, 35.195923%)" offset="0.582031"/><stop stop-opacity="1" stop-color="rgb(80.195618%, 15.892029%, 34.934998%)" offset="0.585938"/><stop stop-opacity="1" stop-color="rgb(80.406189%, 15.841675%, 34.672546%)" offset="0.589844"/><stop stop-opacity="1" stop-color="rgb(80.618286%, 15.791321%, 34.411621%)" offset="0.59375"/><stop stop-opacity="1" stop-color="rgb(80.828857%, 15.740967%, 34.150696%)" offset="0.597656"/><stop stop-opacity="1" stop-color="rgb(81.039429%, 15.692139%, 33.889771%)" offset="0.601563"/><stop stop-opacity="1" stop-color="rgb(81.25%, 15.641785%, 33.627319%)" offset="0.605469"/><stop stop-opacity="1" stop-color="rgb(81.462097%, 15.592957%, 33.366394%)" offset="0.609375"/><stop stop-opacity="1" stop-color="rgb(81.672668%, 15.542603%, 33.105469%)" offset="0.613281"/><stop stop-opacity="1" stop-color="rgb(81.88324%, 15.492249%, 32.844543%)" offset="0.617188"/><stop stop-opacity="1" stop-color="rgb(82.093811%, 15.441895%, 32.583618%)" offset="0.621094"/><stop stop-opacity="1" stop-color="rgb(82.305908%, 15.393066%, 32.322693%)" offset="0.625"/><stop stop-opacity="1" stop-color="rgb(82.516479%, 15.342712%, 32.060242%)" offset="0.628906"/><stop stop-opacity="1" stop-color="rgb(82.727051%, 15.293884%, 31.799316%)" offset="0.632813"/><stop stop-opacity="1" stop-color="rgb(82.937622%, 15.24353%, 31.538391%)" offset="0.636719"/><stop stop-opacity="1" stop-color="rgb(83.148193%, 15.193176%, 31.277466%)" offset="0.640625"/><stop stop-opacity="1" stop-color="rgb(83.358765%, 15.142822%, 31.016541%)" offset="0.644531"/><stop stop-opacity="1" stop-color="rgb(83.570862%, 15.093994%, 30.755615%)" offset="0.648438"/><stop stop-opacity="1" stop-color="rgb(83.781433%, 15.04364%, 30.493164%)" offset="0.652344"/><stop stop-opacity="1" stop-color="rgb(83.992004%, 14.994812%, 30.232239%)" offset="0.65625"/><stop stop-opacity="1" stop-color="rgb(84.202576%, 14.944458%, 29.971313%)" offset="0.660156"/><stop stop-opacity="1" stop-color="rgb(84.414673%, 14.894104%, 29.710388%)" offset="0.664063"/><stop stop-opacity="1" stop-color="rgb(84.625244%, 14.84375%, 29.449463%)" offset="0.667969"/><stop stop-opacity="1" stop-color="rgb(84.835815%, 14.794922%, 29.188538%)" offset="0.671875"/><stop stop-opacity="1" stop-color="rgb(85.046387%, 14.744568%, 28.926086%)" offset="0.675781"/><stop stop-opacity="1" stop-color="rgb(85.258484%, 14.694214%, 28.665161%)" offset="0.679688"/><stop stop-opacity="1" stop-color="rgb(85.469055%, 14.64386%, 28.404236%)" offset="0.683594"/><stop stop-opacity="1" stop-color="rgb(85.679626%, 14.595032%, 28.143311%)" offset="0.6875"/><stop stop-opacity="1" stop-color="rgb(85.890198%, 14.544678%, 27.880859%)" offset="0.691406"/><stop stop-opacity="1" stop-color="rgb(86.102295%, 14.49585%, 27.619934%)" offset="0.695313"/><stop stop-opacity="1" stop-color="rgb(86.312866%, 14.445496%, 27.359009%)" offset="0.699219"/><stop stop-opacity="1" stop-color="rgb(86.523438%, 14.395142%, 27.098083%)" offset="0.703125"/><stop stop-opacity="1" stop-color="rgb(86.734009%, 14.344788%, 26.837158%)" offset="0.707031"/><stop stop-opacity="1" stop-color="rgb(86.94458%, 14.295959%, 26.576233%)" offset="0.710938"/><stop stop-opacity="1" stop-color="rgb(87.155151%, 14.245605%, 26.313782%)" offset="0.714844"/><stop stop-opacity="1" stop-color="rgb(87.367249%, 14.196777%, 26.052856%)" offset="0.71875"/><stop stop-opacity="1" stop-color="rgb(87.57782%, 14.146423%, 25.791931%)" offset="0.722656"/><stop stop-opacity="1" stop-color="rgb(87.788391%, 14.096069%, 25.531006%)" offset="0.726562"/><stop stop-opacity="1" stop-color="rgb(87.998962%, 14.045715%, 25.270081%)" offset="0.730469"/><stop stop-opacity="1" stop-color="rgb(88.21106%, 13.996887%, 25.009155%)" offset="0.734375"/><stop stop-opacity="1" stop-color="rgb(88.421631%, 13.946533%, 24.746704%)" offset="0.738281"/><stop stop-opacity="1" stop-color="rgb(88.632202%, 13.897705%, 24.485779%)" offset="0.742188"/><stop stop-opacity="1" stop-color="rgb(88.842773%, 13.847351%, 24.224854%)" offset="0.746094"/><stop stop-opacity="1" stop-color="rgb(89.054871%, 13.796997%, 23.963928%)" offset="0.75"/><stop stop-opacity="1" stop-color="rgb(89.265442%, 13.746643%, 23.701477%)" offset="0.753906"/><stop stop-opacity="1" stop-color="rgb(89.476013%, 13.697815%, 23.440552%)" offset="0.757812"/><stop stop-opacity="1" stop-color="rgb(89.686584%, 13.647461%, 23.179626%)" offset="0.761719"/><stop stop-opacity="1" stop-color="rgb(89.897156%, 13.598633%, 22.918701%)" offset="0.765625"/><stop stop-opacity="1" stop-color="rgb(90.107727%, 13.548279%, 22.657776%)" offset="0.769531"/><stop stop-opacity="1" stop-color="rgb(90.319824%, 13.497925%, 22.396851%)" offset="0.773438"/><stop stop-opacity="1" stop-color="rgb(90.530396%, 13.447571%, 22.134399%)" offset="0.777344"/><stop stop-opacity="1" stop-color="rgb(90.740967%, 13.398743%, 21.873474%)" offset="0.78125"/><stop stop-opacity="1" stop-color="rgb(90.951538%, 13.348389%, 21.612549%)" offset="0.785156"/><stop stop-opacity="1" stop-color="rgb(91.163635%, 13.299561%, 21.351624%)" offset="0.789062"/><stop stop-opacity="1" stop-color="rgb(91.374207%, 13.249207%, 21.090698%)" offset="0.792969"/><stop stop-opacity="1" stop-color="rgb(91.584778%, 13.198853%, 20.829773%)" offset="0.796875"/><stop stop-opacity="1" stop-color="rgb(91.795349%, 13.148499%, 20.567322%)" offset="0.800781"/><stop stop-opacity="1" stop-color="rgb(92.007446%, 13.09967%, 20.306396%)" offset="0.804688"/><stop stop-opacity="1" stop-color="rgb(92.218018%, 13.049316%, 20.045471%)" offset="0.808594"/><stop stop-opacity="1" stop-color="rgb(92.428589%, 13.000488%, 19.784546%)" offset="0.8125"/><stop stop-opacity="1" stop-color="rgb(92.63916%, 12.950134%, 19.523621%)" offset="0.816406"/><stop stop-opacity="1" stop-color="rgb(92.851257%, 12.89978%, 19.262695%)" offset="0.820312"/><stop stop-opacity="1" stop-color="rgb(93.061829%, 12.849426%, 19.000244%)" offset="0.824219"/><stop stop-opacity="1" stop-color="rgb(93.2724%, 12.800598%, 18.739319%)" offset="0.828125"/><stop stop-opacity="1" stop-color="rgb(93.482971%, 12.750244%, 18.478394%)" offset="0.832031"/><stop stop-opacity="1" stop-color="rgb(93.693542%, 12.69989%, 18.217468%)" offset="0.835938"/><stop stop-opacity="1" stop-color="rgb(93.904114%, 12.649536%, 17.955017%)" offset="0.839844"/><stop stop-opacity="1" stop-color="rgb(94.116211%, 12.600708%, 17.694092%)" offset="0.84375"/><stop stop-opacity="1" stop-color="rgb(94.326782%, 12.550354%, 17.433167%)" offset="0.847656"/><stop stop-opacity="1" stop-color="rgb(94.537354%, 12.501526%, 17.172241%)" offset="0.851562"/><stop stop-opacity="1" stop-color="rgb(94.747925%, 12.451172%, 16.911316%)" offset="0.855469"/><stop stop-opacity="1" stop-color="rgb(94.960022%, 12.400818%, 16.650391%)" offset="0.859375"/><stop stop-opacity="1" stop-color="rgb(95.170593%, 12.350464%, 16.387939%)" offset="0.863281"/><stop stop-opacity="1" stop-color="rgb(95.381165%, 12.301636%, 16.127014%)" offset="0.867188"/><stop stop-opacity="1" stop-color="rgb(95.591736%, 12.251282%, 15.866089%)" offset="0.871094"/><stop stop-opacity="1" stop-color="rgb(95.803833%, 12.202454%, 15.605164%)" offset="0.875"/><stop stop-opacity="1" stop-color="rgb(96.014404%, 12.1521%, 15.344238%)" offset="0.878906"/><stop stop-opacity="1" stop-color="rgb(96.224976%, 12.101746%, 15.083313%)" offset="0.882812"/><stop stop-opacity="1" stop-color="rgb(96.435547%, 12.051392%, 14.820862%)" offset="0.886719"/><stop stop-opacity="1" stop-color="rgb(96.647644%, 12.002563%, 14.559937%)" offset="0.890625"/><stop stop-opacity="1" stop-color="rgb(96.858215%, 11.952209%, 14.299011%)" offset="0.894531"/><stop stop-opacity="1" stop-color="rgb(97.068787%, 11.903381%, 14.038086%)" offset="0.898438"/><stop stop-opacity="1" stop-color="rgb(97.279358%, 11.853027%, 13.777161%)" offset="0.902344"/><stop stop-opacity="1" stop-color="rgb(97.489929%, 11.802673%, 13.516235%)" offset="0.90625"/><stop stop-opacity="1" stop-color="rgb(97.7005%, 11.752319%, 13.253784%)" offset="0.910156"/><stop stop-opacity="1" stop-color="rgb(97.912598%, 11.703491%, 12.992859%)" offset="0.914063"/><stop stop-opacity="1" stop-color="rgb(98.123169%, 11.653137%, 12.731934%)" offset="0.917969"/><stop stop-opacity="1" stop-color="rgb(98.33374%, 11.604309%, 12.471008%)" offset="0.921875"/><stop stop-opacity="1" stop-color="rgb(98.544312%, 11.553955%, 12.208557%)" offset="0.925781"/><stop stop-opacity="1" stop-color="rgb(98.756409%, 11.503601%, 11.947632%)" offset="0.929688"/><stop stop-opacity="1" stop-color="rgb(98.96698%, 11.453247%, 11.686707%)" offset="0.933594"/><stop stop-opacity="1" stop-color="rgb(99.177551%, 11.404419%, 11.425781%)" offset="0.9375"/><stop stop-opacity="1" stop-color="rgb(99.188232%, 11.401367%, 11.412048%)" offset="1"/></linearGradient><clipPath id="id4"><path d="M 110.777344 105.542969 L 264.527344 105.542969 L 264.527344 259.292969 L 110.777344 259.292969 Z M 110.777344 105.542969 " clip-rule="nonzero"/></clipPath></defs><g clip-path="url(#id1)"><g clip-path="url(#id2)"><path fill="url(#id3)" d="M 111.207031 105.972656 L 111.207031 258.863281 L 264.097656 258.863281 L 264.097656 105.972656 Z M 111.207031 105.972656 " fill-rule="nonzero"/></g></g><g clip-path="url(#id4)"><path fill="#2b1511" d="M 187.652344 259.292969 C 145.246094 259.292969 110.777344 224.824219 110.777344 182.417969 C 110.777344 140.015625 145.246094 105.542969 187.652344 105.542969 C 230.023438 105.542969 264.527344 140.015625 264.527344 182.417969 C 264.527344 224.824219 230.023438 259.292969 187.652344 259.292969 Z M 187.652344 106.40625 C 145.738281 106.40625 111.636719 140.507812 111.636719 182.417969 C 111.636719 224.332031 145.738281 258.433594 187.652344 258.433594 C 229.5625 258.433594 263.664062 224.332031 263.664062 182.417969 C 263.664062 140.507812 229.5625 106.40625 187.652344 106.40625 Z M 187.652344 106.40625 " fill-opacity="1" fill-rule="nonzero"/></g><g fill="#ffffff" fill-opacity="1"><g transform="translate(115.254437, 174.188852)"><g><path d="M 50.949219 -8.148438 C 56.023438 -21.960938 52.707031 -30.941406 56.023438 -34.40625 C 55.636719 -34.355469 52.511719 -33.820312 49.679688 -33.820312 C 47.4375 -33.820312 45.386719 -34.160156 44.847656 -35.234375 C 44.3125 -34.84375 43.972656 -33.722656 44.117188 -32.257812 C 44.410156 -30.011719 46.214844 -28.011719 47.875 -27.574219 C 51.390625 -25.328125 48.65625 -4.878906 43.726562 -3.953125 C 43.140625 -3.855469 42.605469 -4.878906 42.214844 -6.929688 C 41.628906 -10.394531 38.796875 -24.644531 38.261719 -27.425781 C 37.332031 -32.648438 33.820312 -34.648438 29.085938 -34.648438 C 26.058594 -34.648438 22.449219 -33.527344 22.15625 -31.722656 C 25.574219 -31.722656 26.304688 -26.058594 26.9375 -22.398438 C 27.035156 -22.011719 27.378906 -20.105469 27.867188 -17.8125 C 26.546875 -11.128906 24.449219 -3.953125 22.546875 -3.953125 C 21.960938 -4 21.425781 -4.878906 21.035156 -6.929688 C 20.449219 -10.394531 17.617188 -24.644531 17.082031 -27.425781 C 16.152344 -32.648438 12.640625 -34.648438 7.90625 -34.648438 C 4.929688 -34.648438 1.269531 -33.527344 0.976562 -31.722656 C 4.390625 -31.722656 5.125 -26.058594 5.757812 -22.398438 C 5.953125 -21.277344 8.636719 -8.148438 8.734375 -7.660156 C 10.101562 -1.707031 13.03125 0.730469 18.398438 0.730469 C 25.476562 0.730469 27.71875 -4.246094 29.429688 -10.101562 C 29.671875 -8.734375 29.867188 -7.757812 29.914062 -7.660156 C 31.28125 -1.707031 34.210938 0.730469 39.578125 0.730469 C 44.996094 0.730469 48.800781 -2.246094 50.949219 -8.148438 Z M 50.949219 -8.148438 "/></g></g></g><g fill="#ffffff" fill-opacity="1"><g transform="translate(172.249203, 174.188852)"><g><path d="M 3.320312 -36.308594 C 2.683594 -35.917969 2 -34.796875 2 -33.332031 C 2 -31.234375 2.832031 -29.671875 4.195312 -28.746094 L 4.148438 -5.515625 C 4.148438 -3.902344 3.5625 -1.953125 2.683594 -0.632812 L 2.195312 0.0976562 L 18.058594 0.0976562 L 17.570312 -0.632812 C 16.691406 -1.953125 16.105469 -3.902344 16.105469 -5.515625 L 16.105469 -12.785156 C 23.816406 -11.222656 17.863281 -0.242188 29.476562 0.683594 C 34.453125 1.074219 38.113281 -0.828125 38.796875 -2.976562 C 34.941406 -2.976562 33.769531 -8.441406 33.625 -12.25 C 31.964844 -11.710938 30.453125 -11.515625 29.039062 -11.515625 C 26.253906 -11.515625 23.914062 -12.296875 22.109375 -12.980469 C 30.746094 -13.519531 35.917969 -16.933594 35.917969 -23.667969 C 35.917969 -30.988281 29.769531 -34.40625 19.570312 -34.40625 C 19.082031 -34.40625 19.277344 -34.40625 17.910156 -34.40625 C 16.445312 -34.210938 14.054688 -33.964844 11.613281 -33.964844 C 8.199219 -33.964844 4.683594 -34.453125 3.320312 -36.308594 Z M 16.25 -32.015625 L 17.03125 -32.015625 C 21.277344 -32.015625 23.71875 -29.722656 23.71875 -23.667969 C 23.71875 -17.617188 21.277344 -15.273438 17.03125 -15.273438 L 16.054688 -15.273438 L 16.054688 -28.355469 C 16.054688 -30.5 16.105469 -31.476562 16.25 -32.015625 Z M 16.25 -32.015625 "/></g></g></g><g fill="#ffffff" fill-opacity="1"><g transform="translate(210.554762, 174.188852)"><g><path d="M 18.15625 -34.648438 C 16.691406 -34.113281 14.835938 -33.867188 12.933594 -33.867188 C 9.46875 -33.867188 5.90625 -34.699219 4.585938 -36.308594 C 3.953125 -35.917969 3.222656 -34.796875 3.222656 -33.332031 C 3.222656 -31.234375 4.097656 -29.671875 5.464844 -28.746094 L 3.953125 -5.515625 C 3.855469 -3.902344 3.320312 -1.953125 2.441406 -0.632812 L 2 0.0976562 L 9.417969 0.0976562 L 8.980469 -0.632812 C 8.101562 -1.953125 7.371094 -3.902344 7.464844 -5.515625 L 8.636719 -24.546875 L 14.203125 -7.273438 C 15.324219 -3.804688 17.863281 -1.707031 21.035156 -1.707031 C 24.15625 -1.757812 25.914062 -3.5625 26.253906 -5.171875 L 32.113281 -25.28125 L 33.285156 -5.515625 C 33.382812 -3.902344 32.699219 -1.953125 31.820312 -0.632812 L 31.332031 0.0976562 L 47.191406 0.0976562 L 46.753906 -0.632812 C 45.824219 -1.953125 45.335938 -3.902344 45.238281 -5.515625 L 43.726562 -28.355469 C 43.628906 -29.964844 44.214844 -31.964844 44.996094 -33.332031 L 45.582031 -34.355469 C 43.777344 -34.113281 40.992188 -33.769531 38.210938 -33.769531 C 35.722656 -33.769531 33.234375 -34.0625 31.332031 -34.992188 L 25.085938 -13.519531 C 22.984375 -19.519531 21.082031 -25.476562 18.15625 -34.648438 Z M 18.15625 -34.648438 "/></g></g></g><g fill="#ffffff" fill-opacity="1"><g transform="translate(114.817804, 201.859748)"><g><path d="M 22.519531 -3.601562 C 24.761719 -9.707031 23.296875 -13.675781 24.761719 -15.207031 C 24.589844 -15.183594 23.210938 -14.949219 21.957031 -14.949219 C 20.964844 -14.949219 20.058594 -15.097656 19.824219 -15.574219 C 19.585938 -15.402344 19.433594 -14.90625 19.5 -14.257812 C 19.628906 -13.265625 20.425781 -12.382812 21.160156 -12.1875 C 22.714844 -11.195312 21.503906 -2.15625 19.328125 -1.746094 C 19.066406 -1.703125 18.832031 -2.15625 18.65625 -3.0625 C 18.398438 -4.59375 17.148438 -10.894531 16.910156 -12.121094 C 16.5 -14.429688 14.949219 -15.316406 12.855469 -15.316406 C 11.519531 -15.316406 9.921875 -14.820312 9.792969 -14.019531 C 11.300781 -14.019531 11.625 -11.519531 11.90625 -9.902344 C 11.949219 -9.726562 12.101562 -8.886719 12.316406 -7.875 C 11.734375 -4.917969 10.804688 -1.746094 9.964844 -1.746094 C 9.707031 -1.769531 9.46875 -2.15625 9.296875 -3.0625 C 9.039062 -4.59375 7.785156 -10.894531 7.550781 -12.121094 C 7.140625 -14.429688 5.585938 -15.316406 3.496094 -15.316406 C 2.179688 -15.316406 0.5625 -14.820312 0.429688 -14.019531 C 1.941406 -14.019531 2.265625 -11.519531 2.546875 -9.902344 C 2.632812 -9.40625 3.816406 -3.601562 3.859375 -3.386719 C 4.464844 -0.753906 5.757812 0.324219 8.132812 0.324219 C 11.257812 0.324219 12.25 -1.875 13.007812 -4.464844 C 13.113281 -3.859375 13.199219 -3.429688 13.222656 -3.386719 C 13.828125 -0.753906 15.121094 0.324219 17.492188 0.324219 C 19.886719 0.324219 21.570312 -0.992188 22.519531 -3.601562 Z M 22.519531 -3.601562 "/></g></g></g><g fill="#ffffff" fill-opacity="1"><g transform="translate(138.535763, 201.859748)"><g><path d="M 8.304688 -1.335938 C 9.058594 -0.109375 10.265625 0.257812 12.015625 0.257812 C 12.964844 0.257812 14.191406 0.0234375 14.558594 -0.992188 C 12.726562 -1.015625 13.070312 -5.285156 13.070312 -6.320312 C 13.070312 -9.273438 10.117188 -10.441406 7.59375 -10.441406 C 6.515625 -10.441406 5.5 -10.050781 4.464844 -10.050781 C 3.601562 -10.050781 2.933594 -10.375 2.414062 -11.085938 C 1.984375 -10.804688 1.8125 -10.222656 1.8125 -9.769531 C 1.8125 -8.195312 2.976562 -7.269531 4.488281 -7.269531 C 6.6875 -7.269531 5.695312 -9.535156 6.878906 -9.535156 C 7.613281 -9.535156 7.828125 -8.800781 7.894531 -8.066406 C 8.046875 -6.105469 7.375 -5.933594 6.449219 -5.933594 C 5.480469 -5.933594 4.574219 -6.320312 3.582031 -6.320312 C 1.984375 -6.320312 0.539062 -5.5 0.539062 -3.730469 C 0.539062 -1.078125 2.695312 0.324219 5.628906 0.28125 C 6.859375 0.257812 7.828125 -0.367188 8.304688 -1.335938 Z M 5.390625 -3.859375 C 5.390625 -5.714844 7.183594 -4.617188 7.917969 -5.261719 C 7.894531 -4.574219 7.894531 -3.902344 7.894531 -3.214844 C 7.828125 -2.761719 7.917969 -1.875 7.097656 -1.875 C 6.0625 -1.875 5.390625 -2.910156 5.390625 -3.859375 Z M 5.390625 -3.859375 "/></g></g></g><g fill="#ffffff" fill-opacity="1"><g transform="translate(151.968425, 201.859748)"><g><path d="M 14.882812 -1.015625 L 14.882812 -1.898438 C 14.90625 -4.679688 14.839844 -7.484375 14.820312 -10.265625 C 13.957031 -10.160156 13.070312 -10.03125 12.1875 -10.03125 C 11.171875 -10.03125 9.964844 -10.179688 9.339844 -11.066406 C 8.910156 -10.785156 8.734375 -10.203125 8.734375 -9.726562 C 8.734375 -8.929688 9.039062 -8.175781 9.707031 -7.699219 L 9.707031 -6.644531 C 9.707031 -5.585938 8.5625 -1.292969 7.246094 -1.292969 C 6.816406 -1.292969 6.878906 -2.070312 6.878906 -2.351562 C 6.878906 -2.761719 6.878906 -3.171875 6.878906 -3.582031 L 6.902344 -6.0625 C 6.902344 -6.492188 6.902344 -6.902344 6.902344 -7.3125 C 6.902344 -9.707031 5.261719 -10.503906 3.105469 -10.503906 C 2.179688 -10.503906 0.605469 -10.222656 0.238281 -9.1875 L 0.324219 -9.210938 C 2.050781 -9.210938 1.746094 -6.191406 1.726562 -5.089844 L 1.726562 -3.386719 C 1.703125 -0.992188 3.257812 0.257812 5.566406 0.257812 C 7.722656 0.257812 9.058594 -1.164062 9.707031 -2.957031 L 9.707031 -2.652344 C 9.707031 -1.984375 9.769531 -0.753906 9.664062 0.472656 C 7.65625 0.539062 4.617188 0.949219 4.617188 2.910156 C 4.617188 4.679688 6.601562 5.21875 8.023438 5.21875 C 12.058594 5.21875 14.882812 3.234375 14.882812 -1.015625 Z M 5.824219 2.957031 C 5.824219 1.726562 8.003906 1.335938 9.554688 1.25 C 9.296875 2.761719 8.671875 4.097656 7.226562 4.097656 C 6.535156 4.097656 5.824219 3.753906 5.824219 2.957031 Z M 5.824219 2.957031 "/></g></g></g><g fill="#ffffff" fill-opacity="1"><g transform="translate(165.789213, 201.859748)"><g><path d="M 16.414062 -0.992188 C 16.371094 -0.96875 16.351562 -0.96875 16.308594 -0.96875 C 14.6875 -0.96875 14.90625 -3.472656 14.90625 -5.089844 C 14.90625 -5.585938 14.925781 -6.578125 14.925781 -6.792969 C 14.925781 -9.1875 13.417969 -10.375 11.214844 -10.441406 C 8.953125 -10.484375 7.570312 -9.039062 6.902344 -7.183594 L 6.019531 -10.289062 C 5.347656 -10.203125 4.574219 -10.074219 3.839844 -10.074219 C 2.867188 -10.074219 1.960938 -10.289062 1.378906 -11.085938 C 1.101562 -10.894531 0.777344 -10.398438 0.777344 -9.75 C 0.777344 -8.84375 1.164062 -8.152344 1.769531 -7.722656 L 1.746094 -2.847656 C 1.726562 -0.5625 3.257812 0.324219 5.542969 0.324219 C 6.96875 0.300781 8.132812 -0.195312 8.414062 -0.992188 C 8.390625 -0.96875 8.347656 -0.96875 8.324219 -0.96875 C 7.246094 -0.96875 6.988281 -2.09375 6.925781 -3.320312 C 6.835938 -5.480469 8.414062 -8.542969 9.125 -8.820312 C 9.859375 -9.125 9.769531 -8.324219 9.769531 -7.117188 C 9.769531 -5.585938 9.726562 -4.121094 9.726562 -2.867188 C 9.726562 -0.5625 11.257812 0.34375 13.523438 0.324219 C 14.96875 0.324219 16.132812 -0.195312 16.414062 -0.992188 Z M 16.414062 -0.992188 "/></g></g></g><g fill="#ffffff" fill-opacity="1"><g transform="translate(181.442807, 201.859748)"><g><path d="M 12.835938 -3.277344 C 12.878906 -3.582031 12.855469 -3.710938 12.703125 -3.710938 C 12.597656 -3.710938 12.46875 -3.667969 12.292969 -3.558594 C 11.453125 -3.085938 9.902344 -2.566406 8.132812 -2.761719 C 8.476562 -1.574219 8.109375 -0.710938 7.550781 -0.691406 C 6.75 -0.625 5.800781 -1.855469 5.523438 -4.355469 C 6.039062 -4.292969 6.6875 -4.25 7.398438 -4.25 C 9.835938 -4.25 12.878906 -4.789062 12.921875 -7.074219 C 12.964844 -9.039062 10.570312 -10.441406 7.074219 -10.441406 C 2.867188 -10.441406 0.539062 -8.457031 0.539062 -5.070312 C 0.539062 -1.660156 3.34375 0.257812 7.117188 0.300781 C 10.460938 0.324219 12.402344 -0.96875 12.835938 -3.277344 Z M 7.269531 -9.535156 C 8.347656 -9.640625 8.820312 -8.777344 8.734375 -7.828125 C 8.585938 -6.234375 7.699219 -5.347656 5.4375 -5.390625 C 5.347656 -7.765625 5.910156 -9.40625 7.269531 -9.535156 Z M 7.269531 -9.535156 "/></g></g></g><g fill="#ffffff" fill-opacity="1"><g transform="translate(193.409218, 201.859748)"><g/></g></g><g fill="#ffffff" fill-opacity="1"><g transform="translate(198.950024, 201.859748)"><g><path d="M 1.464844 -16.046875 C 1.1875 -15.875 0.882812 -15.378906 0.882812 -14.730469 C 0.882812 -13.804688 1.25 -13.113281 1.855469 -12.703125 L 1.832031 -2.4375 C 1.832031 -1.726562 1.574219 -0.863281 1.1875 -0.28125 L 0.96875 0.0429688 L 7.980469 0.0429688 L 7.765625 -0.28125 C 7.375 -0.863281 7.117188 -1.726562 7.117188 -2.4375 L 7.117188 -5.652344 C 10.527344 -4.960938 7.894531 -0.109375 13.027344 0.300781 C 15.226562 0.472656 16.847656 -0.367188 17.148438 -1.316406 C 15.445312 -1.316406 14.925781 -3.730469 14.863281 -5.414062 C 14.128906 -5.175781 13.460938 -5.089844 12.835938 -5.089844 C 11.605469 -5.089844 10.570312 -5.4375 9.769531 -5.738281 C 13.589844 -5.976562 15.875 -7.484375 15.875 -10.460938 C 15.875 -13.695312 13.15625 -15.207031 8.648438 -15.207031 C 8.433594 -15.207031 8.519531 -15.207031 7.917969 -15.207031 C 7.269531 -15.121094 6.210938 -15.011719 5.132812 -15.011719 C 3.625 -15.011719 2.070312 -15.226562 1.464844 -16.046875 Z M 7.183594 -14.148438 L 7.527344 -14.148438 C 9.40625 -14.148438 10.484375 -13.136719 10.484375 -10.460938 C 10.484375 -7.785156 9.40625 -6.75 7.527344 -6.75 L 7.097656 -6.75 L 7.097656 -12.53125 C 7.097656 -13.480469 7.117188 -13.914062 7.183594 -14.148438 Z M 7.183594 -14.148438 "/></g></g></g><g fill="#ffffff" fill-opacity="1"><g transform="translate(214.40956, 201.859748)"><g><path d="M 7.289062 -14.582031 C 7.289062 -16.175781 6.210938 -17.148438 4.421875 -17.148438 C 2.652344 -17.148438 1.574219 -16.175781 1.574219 -14.582031 C 1.574219 -12.984375 2.652344 -12.015625 4.421875 -12.015625 C 6.210938 -12.015625 7.289062 -12.984375 7.289062 -14.582031 Z M 8.347656 -0.992188 C 8.304688 -0.96875 8.28125 -0.96875 8.238281 -0.96875 C 6.621094 -0.96875 6.835938 -3.515625 6.835938 -5.15625 L 6.835938 -9.988281 C 6.125 -9.902344 5.15625 -9.75 4.207031 -9.75 C 3.042969 -9.75 1.898438 -9.964844 1.292969 -10.785156 C 1.015625 -10.589844 0.691406 -10.09375 0.691406 -9.449219 C 0.691406 -8.519531 1.078125 -7.851562 1.683594 -7.421875 L 1.660156 -2.847656 C 1.660156 -0.5625 3.191406 0.324219 5.457031 0.324219 C 6.902344 0.300781 8.066406 -0.195312 8.347656 -0.992188 Z M 8.347656 -0.992188 "/></g></g></g><g fill="#ffffff" fill-opacity="1"><g transform="translate(221.998801, 201.859748)"><g><path d="M 12.835938 -3.277344 C 12.878906 -3.582031 12.855469 -3.710938 12.683594 -3.710938 C 12.597656 -3.710938 12.46875 -3.667969 12.273438 -3.558594 C 11.820312 -3.320312 11.128906 -3.105469 10.398438 -3.105469 C 9.902344 -3.105469 9.382812 -3.191406 8.867188 -3.453125 C 9.210938 -2.007812 8.691406 -0.5625 7.550781 -0.691406 C 6.707031 -0.777344 5.652344 -2.070312 5.457031 -5.003906 C 5.304688 -7.59375 5.84375 -9.382812 7.269531 -9.535156 C 8.261719 -9.640625 8.820312 -8.886719 8.777344 -7.917969 C 8.734375 -7.160156 8.414062 -6.644531 8.109375 -6.339844 C 8.476562 -5.738281 9.339844 -5.414062 10.246094 -5.414062 C 11.519531 -5.414062 12.835938 -6.039062 12.921875 -7.332031 C 13.027344 -9.082031 10.570312 -10.441406 7.074219 -10.441406 C 2.867188 -10.441406 0.539062 -8.457031 0.539062 -5.070312 C 0.539062 -1.660156 3.34375 0.257812 7.117188 0.300781 C 10.460938 0.324219 12.402344 -0.96875 12.835938 -3.277344 Z M 12.835938 -3.277344 "/></g></g></g><g fill="#ffffff" fill-opacity="1"><g transform="translate(233.965212, 201.859748)"><g><path d="M 16.414062 -0.992188 C 16.371094 -0.96875 16.351562 -0.96875 16.308594 -0.96875 C 14.6875 -0.96875 14.90625 -3.472656 14.90625 -5.089844 C 14.90625 -5.585938 14.925781 -6.578125 14.925781 -6.792969 C 14.925781 -9.1875 13.417969 -10.375 11.214844 -10.441406 C 8.953125 -10.484375 7.59375 -9.039062 6.925781 -7.203125 L 6.925781 -15.574219 C 6.210938 -15.488281 5.242188 -15.335938 4.269531 -15.335938 C 3.128906 -15.335938 1.984375 -15.550781 1.378906 -16.371094 C 1.101562 -16.199219 0.777344 -15.703125 0.777344 -15.054688 C 0.777344 -14.128906 1.164062 -13.4375 1.769531 -13.027344 L 1.746094 -2.847656 C 1.746094 -0.5625 3.257812 0.324219 5.542969 0.324219 C 6.96875 0.300781 8.132812 -0.195312 8.414062 -0.992188 C 8.390625 -0.96875 8.347656 -0.96875 8.324219 -0.96875 C 7.246094 -0.96875 6.988281 -2.09375 6.925781 -3.320312 C 6.835938 -5.480469 8.414062 -8.542969 9.125 -8.820312 C 9.859375 -9.125 9.769531 -8.324219 9.769531 -7.117188 C 9.769531 -5.585938 9.726562 -4.121094 9.726562 -2.867188 C 9.726562 -0.5625 11.257812 0.34375 13.523438 0.324219 C 14.96875 0.324219 16.132812 -0.195312 16.414062 -0.992188 Z M 16.414062 -0.992188 "/></g></g></g><g fill="#ffffff" fill-opacity="1"><g transform="translate(157.135614, 221.002104)"><g><path d="M 10.667969 -9.339844 L 8.785156 -9.339844 L 6.039062 -0.988281 L 3.277344 -9.339844 L 1.355469 -9.339844 L 1.355469 0 L 2.519531 0 L 2.519531 -4.804688 C 2.519531 -5.957031 2.519531 -7.242188 2.492188 -8.257812 C 2.789062 -7.257812 3.222656 -5.957031 3.601562 -4.847656 L 5.28125 0 L 6.742188 0 L 8.394531 -4.820312 C 8.785156 -5.957031 9.21875 -7.269531 9.53125 -8.285156 C 9.503906 -7.269531 9.503906 -5.96875 9.503906 -4.804688 L 9.503906 0 L 10.667969 0 Z M 10.667969 -9.339844 "/></g></g></g><g fill="#ffffff" fill-opacity="1"><g transform="translate(173.664132, 221.002104)"><g><path d="M 7.566406 -0.949219 L 2.519531 -0.949219 L 2.519531 -4.195312 L 7.027344 -4.195312 L 7.027344 -5.144531 L 2.519531 -5.144531 L 2.519531 -8.394531 L 7.433594 -8.394531 L 7.433594 -9.339844 L 1.355469 -9.339844 L 1.355469 0 L 7.566406 0 Z M 7.566406 -0.949219 "/></g></g></g><g fill="#ffffff" fill-opacity="1"><g transform="translate(186.416351, 221.002104)"><g><path d="M 5.386719 -9.285156 C 4.914062 -9.339844 4.699219 -9.339844 4.195312 -9.339844 L 1.355469 -9.339844 L 1.355469 0 L 4.128906 0 C 4.628906 0 4.847656 0 5.320312 -0.0546875 C 7.484375 -0.324219 9.082031 -2.03125 9.082031 -4.777344 C 9.082031 -7.566406 7.554688 -9.015625 5.386719 -9.285156 Z M 5.199219 -1.015625 C 4.902344 -0.960938 4.546875 -0.949219 4.0625 -0.949219 L 2.519531 -0.949219 L 2.519531 -8.394531 L 4.128906 -8.394531 C 4.617188 -8.394531 4.96875 -8.378906 5.265625 -8.324219 C 6.851562 -8.066406 7.8125 -6.851562 7.8125 -4.777344 C 7.8125 -2.570312 6.78125 -1.273438 5.199219 -1.015625 Z M 5.199219 -1.015625 "/></g></g></g><g fill="#ffffff" fill-opacity="1"><g transform="translate(200.819861, 221.002104)"><g><path d="M 2.519531 0 L 2.519531 -9.339844 L 1.355469 -9.339844 L 1.355469 0 Z M 2.519531 0 "/></g></g></g><g fill="#ffffff" fill-opacity="1"><g transform="translate(209.200231, 221.002104)"><g><path d="M 6.171875 -3.304688 L 7.28125 0 L 8.542969 0 L 5.320312 -9.339844 L 3.75 -9.339844 L 0.394531 0 L 1.636719 0 L 2.734375 -3.304688 Z M 3.058594 -4.25 L 4.507812 -8.421875 L 5.863281 -4.25 Z M 3.058594 -4.25 "/></g></g></g></svg>