<svg xmlns="http://www.w3.org/2000/svg" xmlns:xlink="http://www.w3.org/1999/xlink" width="2500" zoomAndPan="magnify" viewBox="0 0 1874.88 1874.999927" height="2500" preserveAspectRatio="xMidYMid meet" version="1.0"><path fill="#ffffff" d="M 848.28125 263 C 847.410156 261.324219 848.28125 262.128906 848.28125 262.128906 C 844.132812 251.289062 829.878906 234.558594 816.496094 237.035156 C 806.457031 238.707031 809.804688 242.921875 805.652344 247.941406 C 788.925781 268.015625 769.71875 285.550781 753.792969 305.625 C 712.035156 358.289062 676.035156 415.972656 640.101562 472.851562 C 604.164062 529.664062 570.707031 586.542969 543.136719 647.574219 C 531.425781 673.472656 515.566406 696.890625 502.984375 721.984375 C 485.453125 756.246094 470.398438 792.183594 455.339844 827.3125 C 455.339844 825.640625 457.011719 787.164062 454.539062 788.835938 C 452.863281 790.507812 451.996094 791.378906 451.996094 792.183594 C 453.667969 773.78125 460.359375 751.230469 463.707031 731.152344 C 468.722656 701.910156 471.199219 672.601562 473.742188 643.359375 C 475.414062 634.191406 490.472656 543.046875 499.640625 497.878906 C 493.816406 520.496094 487.125 552.214844 485.453125 555.5625 C 492.949219 516.28125 501.3125 477 514.695312 438.523438 C 513.894531 441.867188 513.894531 445.214844 515.566406 445.214844 C 518.042969 445.214844 527.210938 418.449219 524.734375 417.644531 L 521.386719 420.121094 C 524.734375 412.625 531.425781 411.757812 530.554688 399.242188 C 529.753906 387.53125 523.929688 376.691406 514.695312 369.128906 C 508.003906 362.4375 495.492188 354.941406 485.453125 357.417969 C 476.21875 359.960938 477.089844 364.980469 473.742188 369.128906 C 441.957031 409.28125 403.480469 452.777344 372.5625 497.074219 C 362.527344 510.460938 357.507812 524.644531 347.46875 538.832031 C 329.132812 562.253906 312.40625 587.347656 293.132812 609.898438 C 273.925781 634.191406 263.085938 659.285156 245.488281 683.507812 L 201.1875 747.011719 C 216.242188 691.875 225.410156 635.863281 236.320312 579.851562 C 238.796875 565.601562 266.433594 413.429688 266.433594 413.429688 C 265.5625 413.429688 248.832031 502.09375 246.355469 511.261719 C 255.523438 462.8125 265.5625 412.625 270.582031 363.308594 C 270.582031 362.4375 269.777344 378.363281 270.582031 377.496094 C 274.730469 377.496094 276.402344 342.429688 273.058594 343.234375 C 272.253906 344.101562 271.449219 344.90625 271.449219 345.777344 C 271.449219 338.214844 275.601562 332.390625 275.601562 321.484375 C 274.730469 303.953125 272.253906 287.222656 264.757812 271.363281 C 258.871094 258.78125 250.503906 245.398438 236.320312 242.921875 C 232.972656 242.054688 232.101562 244.597656 227.953125 243.726562 C 223.738281 243.726562 222.9375 240.378906 218.71875 240.378906 C 200.382812 241.25 186.132812 258.78125 179.4375 273.839844 C 170.269531 291.371094 159.363281 351.597656 197.839844 325.699219 C 197.839844 329.847656 195.367188 370 194.496094 372.476562 C 196.167969 371.671875 196.167969 370 197.039062 368.328125 C 196.167969 376.691406 195.367188 384.1875 193.691406 391.746094 C 192.824219 390.878906 194.496094 385.054688 192.824219 385.054688 C 185.328125 385.054688 177.765625 457.796875 177.765625 466.964844 C 176.964844 483.691406 173.617188 498.75 169.402344 515.476562 C 167.730469 522.972656 166.054688 530.535156 165.253906 538.03125 C 164.382812 538.832031 163.578125 558.105469 166.054688 553.085938 C 166.054688 554.757812 165.253906 555.5625 165.253906 557.234375 C 164.382812 556.433594 164.382812 555.5625 164.382812 554.757812 C 163.578125 555.5625 159.363281 582.328125 158.5625 583.199219 C 154.34375 597.386719 148.523438 609.898438 144.375 624.152344 C 135.140625 657.613281 130.121094 691.875 121.757812 725.332031 C 143.503906 659.285156 163.578125 589.019531 177.765625 521.300781 C 188.671875 466.964844 203.730469 408.476562 207.878906 352.398438 C 203.730469 420.992188 190.347656 490.382812 173.617188 555.5625 C 163.578125 595.710938 152.671875 635.863281 141.832031 675.945312 C 130.992188 716.96875 112.589844 756.246094 102.550781 798.003906 C 97.53125 817.277344 93.316406 832.332031 86.625 851.539062 C 80 870.742188 74.980469 891.6875 95.859375 904.203125 C 117.605469 916.785156 156.886719 911.765625 167.730469 886.671875 C 169.402344 882.453125 170.269531 878.304688 171.074219 874.089844 C 178.636719 849.867188 195.367188 828.117188 207.878906 806.371094 C 230.429688 767.089844 253.851562 727.808594 279.75 690.199219 C 306.515625 649.246094 334.152344 609.898438 359.179688 568.140625 C 370.890625 548.871094 388.488281 532.207031 401.804688 513.804688 L 433.59375 472.851562 C 431.917969 477 421.882812 522.972656 421.078125 522.972656 C 421.882812 522.972656 421.882812 522.171875 422.75 522.171875 C 421.078125 527.1875 420.207031 533.011719 419.40625 538.03125 C 417.734375 538.03125 420.207031 533.011719 418.535156 533.011719 C 407.695312 531.339844 401.003906 601.601562 401.003906 606.554688 C 399.332031 619.9375 395.179688 633.320312 392.636719 646.703125 C 390.164062 657.613281 391.835938 666.777344 391.835938 674.273438 C 390.964844 672.601562 390.964844 683.507812 390.164062 685.984375 C 389.292969 695.21875 386.816406 698.566406 384.273438 706.929688 C 377.582031 726.136719 375.910156 748.6875 375.105469 767.957031 C 374.234375 804.695312 370.085938 844.847656 375.105469 880.78125 C 378.453125 909.222656 406.023438 933.445312 435.265625 930.96875 C 451.191406 929.296875 454.539062 922.605469 457.882812 909.222656 C 460.359375 897.511719 466.179688 885.800781 472.070312 873.285156 C 492.949219 828.988281 513.894531 783.816406 537.246094 741.191406 C 552.304688 713.621094 560.667969 685.984375 575.726562 660.085938 C 595.800781 624.957031 615.003906 589.890625 636.753906 556.433594 C 646.792969 540.503906 654.285156 524.644531 660.976562 508.785156 C 670.210938 488.710938 687.746094 471.179688 700.324219 452.777344 C 714.511719 432.703125 727.027344 412.625 742.953125 392.550781 C 757.140625 375.019531 774.738281 357.417969 786.382812 338.214844 C 791.402344 329.847656 788.054688 329.847656 795.617188 322.355469 C 800.636719 317.335938 808.128906 311.445312 814.820312 306.429688 C 828.207031 295.585938 854.972656 284.679688 848.28125 263 Z M 477.089844 586.542969 C 476.21875 589.019531 478.761719 583.199219 481.238281 577.308594 C 481.238281 576.507812 482.105469 575.636719 482.105469 574.835938 C 479.566406 586.542969 477.089844 595.710938 475.414062 605.75 C 475.414062 599.929688 474.546875 594.910156 477.089844 586.542969 Z M 507.203125 473.65625 C 506.332031 473.65625 504.660156 477.804688 502.984375 486.167969 C 504.660156 478.671875 507.203125 473.65625 507.203125 473.65625 Z M 507.203125 473.65625 " fill-opacity="1" fill-rule="nonzero"/><path fill="#ffffff" d="M 1092.328125 226.195312 C 1066.429688 233.6875 1040.464844 265.472656 1022.128906 283.875 C 1010.417969 294.71875 998.707031 306.429688 987.800781 319.007812 C 980.304688 327.375 961.101562 344.101562 959.429688 355.746094 C 960.230469 356.617188 960.230469 356.617188 961.101562 356.617188 L 949.390625 371.671875 C 948.519531 372.476562 956.082031 359.960938 956.886719 359.09375 C 952.738281 360.765625 946.042969 375.820312 946.042969 375.820312 C 922.625 405.933594 896.726562 433.503906 874.976562 465.289062 C 850.6875 501.226562 830.679688 538.03125 811.40625 576.507812 C 821.445312 538.03125 835.699219 501.226562 849.882812 464.488281 L 829.808594 507.113281 L 838.171875 487.839844 C 810.601562 538.832031 787.183594 592.367188 770.453125 647.574219 C 803.910156 534.683594 850.6875 416.773438 924.296875 295.585938 C 921.753906 300.605469 919.277344 307.296875 920.082031 307.296875 C 923.425781 308.101562 940.15625 275.511719 937.679688 274.707031 L 935.136719 276.382812 C 940.15625 267.148438 942.699219 262.128906 937.679688 248.746094 C 932.660156 235.363281 920.082031 212.007812 902.546875 219.5 C 891.707031 223.652344 882.472656 243.726562 878.324219 252.089844 C 875.78125 256.304688 874.976562 263 872.433594 266.34375 C 869.089844 271.363281 863.265625 273.839844 858.25 280.53125 C 847.339844 297.261719 839.847656 317.335938 832.351562 335.738281 C 828.136719 345.777344 782.164062 445.214844 783.835938 446.085938 C 785.507812 445.214844 786.3125 443.542969 787.183594 441.867188 C 784.640625 449.429688 781.292969 456.925781 777.949219 464.488281 C 777.144531 463.617188 780.492188 457.796875 778.816406 457.796875 C 771.324219 456.121094 746.230469 525.515625 744.554688 532.207031 C 741.210938 548.066406 736.992188 562.253906 730.300781 578.179688 C 726.152344 588.21875 721.9375 598.253906 718.589844 608.226562 C 718.589844 609.097656 714.441406 629.972656 717.789062 622.480469 C 717.789062 624.957031 716.917969 626.628906 716.117188 629.171875 C 716.117188 628.300781 716.117188 626.628906 715.246094 625.824219 C 713.574219 626.628906 708.621094 651.722656 706.949219 655.070312 C 701.058594 667.582031 694.367188 680.164062 689.347656 693.546875 C 676.835938 728.679688 670.945312 764.613281 662.582031 801.351562 C 656.761719 828.988281 638.359375 873.285156 650.871094 900.855469 C 662.582031 926.753906 702.730469 925.082031 721.132812 905.875 C 721.132812 907.546875 721.9375 908.417969 722.808594 909.222656 C 731.171875 846.519531 755.394531 783.015625 780.492188 724.460938 C 785.507812 733.628906 782.964844 737.84375 786.3125 748.6875 C 790.527344 765.414062 801.367188 779.667969 808.929688 794.660156 C 812.277344 801.351562 849.882812 874.960938 851.558594 874.089844 C 852.359375 872.417969 851.558594 870.742188 851.558594 869.941406 C 854.03125 875.761719 857.378906 880.78125 860.726562 886.671875 C 859.921875 886.671875 858.25 882.453125 856.574219 883.324219 C 849.882812 888.34375 885.015625 937.660156 889.164062 941.007812 C 898.398438 951.847656 906.695312 961.886719 914.257812 972.792969 C 919.277344 979.484375 923.425781 986.109375 929.316406 991.128906 C 930.117188 992 940.15625 999.492188 938.484375 996.148438 C 939.351562 997.015625 941.027344 997.820312 941.828125 999.492188 C 941.828125 999.492188 941.027344 998.691406 940.15625 998.691406 C 939.351562 1001.167969 979.4375 1038.839844 982.78125 1041.316406 C 997.839844 1050.484375 1014.566406 1056.375 1032.101562 1054.699219 C 1079.8125 1050.484375 1116.550781 1009.53125 1143.316406 975.269531 C 1150.007812 966.90625 1153.355469 960.210938 1152.550781 951.046875 C 1150.878906 928.425781 1142.515625 939.335938 1134.953125 947.699219 C 1120.765625 962.753906 1094 979.484375 1072.25 979.484375 C 1063.886719 980.289062 1055.523438 976.941406 1047.15625 973.597656 C 1043.8125 971.921875 1014.566406 954.390625 1014.566406 955.195312 C 1015.4375 956.867188 1016.242188 959.410156 1017.914062 961.082031 C 1003.726562 949.371094 988.671875 928.425781 975.289062 913.4375 L 917.605469 847.390625 C 910.042969 839.023438 856.574219 762.941406 833.15625 724.460938 L 859.921875 772.105469 C 844.863281 748.6875 831.480469 724.460938 818.097656 699.367188 C 859.921875 701.910156 910.042969 669.253906 944.371094 647.574219 C 975.289062 626.628906 998.707031 593.238281 1025.476562 563.925781 C 1078.941406 507.917969 1129.132812 439.394531 1143.316406 360.765625 C 1124.113281 469.507812 1058.867188 554.757812 977.761719 624.957031 C 1004.53125 618.265625 1031.296875 587.347656 1049.699219 568.140625 C 1070.578125 548.066406 1088.980469 524.644531 1106.511719 501.226562 C 1126.589844 473.65625 1143.316406 443.542969 1155.027344 410.953125 C 1160.046875 398.441406 1177.578125 361.636719 1174.234375 344.90625 C 1174.234375 344.90625 1171.757812 350.726562 1170.085938 354.941406 C 1172.5625 340.757812 1174.234375 327.375 1173.429688 312.316406 C 1174.234375 315.664062 1175.90625 320.679688 1175.101562 321.484375 C 1176.777344 320.679688 1175.90625 309.773438 1175.90625 305.625 C 1175.90625 305.625 1175.101562 299.734375 1175.90625 301.410156 C 1172.5625 261.324219 1135.824219 213.679688 1092.328125 226.195312 Z M 1091.523438 328.175781 C 1090.652344 331.523438 1090.652344 330.71875 1091.523438 329.046875 C 1087.308594 386.730469 1054.71875 443.542969 1022.128906 489.515625 C 1005.402344 513.804688 986.128906 536.355469 966.054688 558.105469 C 956.886719 567.273438 946.847656 576.507812 936.808594 584.871094 C 929.316406 592.367188 913.390625 600.730469 905.894531 609.898438 C 912.585938 603.207031 927.640625 594.910156 934.335938 589.890625 C 947.71875 578.179688 961.101562 564.796875 973.613281 552.214844 C 993.691406 530.535156 1012.894531 507.917969 1029.625 483.691406 C 978.632812 559.777344 908.371094 625.824219 823.988281 660.957031 C 830.679688 656.742188 847.339844 648.375 847.339844 647.574219 C 845.667969 645.902344 812.277344 660.957031 808.929688 662.628906 C 819.769531 640.882812 830.679688 619.132812 842.324219 597.386719 C 845.667969 592.367188 872.433594 541.375 872.433594 541.375 C 870.761719 541.375 869.089844 542.179688 868.285156 544.722656 C 905.023438 485.367188 953.539062 426.007812 998.707031 371.671875 C 1012.894531 354.941406 1095.671875 247.070312 1091.523438 327.375 Z M 895.054688 361.636719 C 896.726562 358.289062 904.222656 339.082031 902.546875 342.429688 L 880.800781 390.074219 C 885.820312 380.839844 890.835938 371.671875 895.054688 361.636719 Z M 823.117188 703.582031 C 821.445312 704.386719 826.460938 712.75 833.15625 724.460938 C 827.332031 712.75 822.3125 703.582031 823.117188 703.582031 Z M 882.472656 805.566406 C 882.472656 805.566406 882.472656 804.695312 883.34375 806.371094 L 883.34375 807.238281 Z M 882.472656 805.566406 C 881.667969 805.566406 881.667969 804.695312 880.800781 803.894531 C 881.667969 804.695312 881.667969 805.566406 882.472656 805.566406 Z M 860.726562 556.433594 C 860.726562 555.5625 861.59375 555.5625 861.59375 554.757812 C 861.59375 555.5625 860.726562 556.433594 860.726562 556.433594 Z M 860.726562 556.433594 " fill-opacity="1" fill-rule="nonzero"/><path fill="#ffffff" d="M 1718.496094 997.820312 C 1695.074219 1006.183594 1656.597656 1010.402344 1633.175781 997.820312 C 1608.949219 984.4375 1618.117188 947.699219 1623.136719 925.949219 C 1633.175781 880.78125 1650.773438 836.480469 1668.308594 792.984375 C 1678.34375 770.433594 1687.511719 747.011719 1697.550781 723.660156 C 1700.09375 718.640625 1721.839844 664.304688 1720.972656 664.304688 C 1719.296875 664.304688 1716.824219 666.777344 1715.148438 670.125 C 1744.390625 609.097656 1793.710938 541.375 1780.328125 468.636719 C 1774.503906 437.71875 1752.757812 406.804688 1718.496094 407.605469 C 1689.183594 407.605469 1662.484375 429.355469 1642.410156 447.757812 C 1604.800781 481.148438 1573.820312 520.496094 1544.578125 560.582031 C 1541.230469 564.796875 1527.847656 584.871094 1512.789062 608.226562 C 1520.351562 595.710938 1530.390625 584.003906 1538.753906 572.292969 C 1503.621094 621.609375 1472.707031 673.472656 1442.59375 725.332031 C 1466.015625 646.703125 1504.425781 573.964844 1537.082031 499.550781 C 1549.59375 471.980469 1570.472656 446.886719 1582.183594 418.449219 C 1594.765625 387.53125 1587.203125 348.25 1566.324219 322.355469 C 1520.351562 266.34375 1454.304688 363.308594 1426.667969 392.550781 C 1370.65625 451.90625 1323.882812 522.171875 1280.386719 589.890625 C 1286.273438 571.488281 1289.554688 553.890625 1296.246094 535.554688 C 1304.609375 512.132812 1313.84375 489.515625 1321.339844 466.160156 C 1329.703125 441.867188 1337.265625 416.773438 1344.761719 392.550781 C 1352.253906 368.328125 1360.621094 335.738281 1354.796875 309.773438 C 1350.648438 291.371094 1343.085938 265.472656 1329.703125 251.289062 C 1308.824219 228.667969 1279.582031 230.34375 1252.816406 238.707031 C 1228.523438 246.269531 1207.644531 257.980469 1188.441406 273.839844 C 1178.402344 283.074219 1169.167969 292.242188 1160 302.277344 L 1151.636719 313.988281 C 1146.617188 320.679688 1147.488281 327.375 1144.945312 333.195312 C 1136.578125 351.597656 1122.394531 365.785156 1116.503906 385.859375 C 1110.683594 408.476562 1109.011719 440.195312 1122.394531 460.269531 C 1129.085938 469.507812 1139.925781 476.132812 1149.964844 467.832031 C 1155.851562 461.945312 1153.308594 456.121094 1154.179688 449.429688 C 1154.980469 444.410156 1157.523438 431.027344 1160.871094 422.664062 C 1175.859375 381.710938 1198.480469 340.757812 1228.523438 308.972656 C 1241.105469 294.71875 1256.160156 281.402344 1274.5625 276.382812 C 1299.589844 270.492188 1300.460938 290.570312 1297.113281 310.644531 L 1292.097656 341.558594 L 1292.097656 333.195312 C 1267.871094 423.464844 1221.03125 507.113281 1189.242188 594.039062 C 1173.382812 636.667969 1154.980469 676.816406 1137.449219 718.640625 C 1119.851562 760.398438 1099.773438 809.714844 1097.300781 855.753906 C 1096.496094 871.613281 1099.773438 887.472656 1112.355469 897.511719 C 1126.542969 909.222656 1148.289062 910.089844 1159.199219 895.035156 C 1167.496094 883.324219 1171.710938 862.378906 1176.730469 849.0625 C 1185.09375 827.3125 1192.589844 805.566406 1201.824219 784.6875 C 1210.1875 762.070312 1224.375 741.996094 1236.890625 721.117188 C 1263.65625 677.621094 1290.421875 634.191406 1318.863281 591.5625 C 1345.628906 550.542969 1372.332031 510.460938 1401.640625 471.980469 C 1430.882812 434.375 1460.125 395.898438 1498.605469 367.457031 C 1504.425781 363.308594 1524.5 347.382812 1532.867188 350.726562 C 1539.558594 353.269531 1532.867188 365.785156 1530.390625 372.476562 C 1516.136719 410.953125 1497.734375 450.234375 1476.855469 485.367188 C 1428.339844 567.273438 1378.21875 659.285156 1359.816406 753.703125 C 1353.125 785.492188 1353.125 817.277344 1378.21875 841.5 C 1404.117188 865.726562 1413.351562 844.847656 1421.648438 821.425781 C 1428.339844 802.21875 1442.59375 785.492188 1452.632812 767.957031 C 1466.816406 744.539062 1480.203125 720.3125 1495.257812 696.023438 C 1504.425781 682.636719 1511.117188 664.304688 1522.023438 654.265625 C 1539.558594 636.667969 1552.070312 616.589844 1566.324219 596.582031 C 1595.566406 554.757812 1624.8125 514.609375 1662.484375 480.347656 C 1671.652344 471.980469 1692.53125 450.234375 1706.785156 453.578125 C 1724.316406 457.796875 1705.113281 485.367188 1705.914062 496.207031 L 1711.804688 484.496094 C 1706.785156 499.550781 1701.765625 513.804688 1695.878906 527.992188 C 1695.074219 527.1875 1698.421875 517.152344 1698.421875 517.152344 C 1695.074219 516.28125 1677.476562 556.433594 1675 560.582031 C 1662.484375 586.542969 1647.429688 612.441406 1638.195312 640.011719 C 1629.027344 665.105469 1619.792969 688.527344 1608.949219 712.75 L 1590.546875 754.574219 C 1587.203125 763.742188 1577.164062 783.816406 1579.707031 793.855469 C 1580.511719 793.855469 1581.382812 793.855469 1581.382812 792.984375 L 1577.164062 808.042969 C 1578.035156 804.695312 1578.839844 797.203125 1578.839844 796.332031 C 1575.492188 798.875 1574.6875 815.605469 1574.6875 815.605469 C 1554.613281 885.800781 1546.25 960.210938 1594.765625 1022.914062 C 1618.117188 1053.027344 1645.753906 1066.410156 1682.492188 1056.375 C 1700.09375 1052.15625 1716.824219 1043.859375 1731.007812 1032.148438 C 1739.375 1024.585938 1765.269531 1002.035156 1761.925781 988.652344 C 1759.449219 975.269531 1726.859375 995.34375 1718.496094 997.820312 Z M 1607.277344 747.011719 C 1614.773438 731.957031 1621.464844 716.097656 1628.15625 700.238281 C 1633.175781 687.65625 1636.519531 665.105469 1644.886719 655.070312 C 1647.429688 655.9375 1647.429688 658.414062 1644.886719 663.433594 C 1639.0625 693.546875 1622.335938 727.003906 1608.949219 755.378906 C 1598.109375 779.667969 1587.203125 804.695312 1578.839844 829.789062 C 1587.203125 802.21875 1593.894531 774.648438 1607.277344 747.011719 Z M 1236.890625 497.074219 C 1248.601562 469.507812 1257.835938 440.195312 1269.546875 412.625 C 1274.5625 400.914062 1280.386719 387.53125 1284.601562 374.148438 C 1274.5625 413.429688 1261.984375 452.777344 1243.582031 490.382812 C 1226.046875 526.320312 1210.1875 563.125 1195.132812 600.730469 C 1208.515625 565.601562 1221.898438 531.339844 1236.890625 497.074219 Z M 1504.425781 620.808594 C 1482.675781 655.9375 1459.324219 691.875 1459.324219 691.875 C 1461.800781 692.675781 1492.714844 640.882812 1504.425781 620.808594 Z M 1631.503906 461.140625 L 1600.585938 493.730469 C 1610.625 482.019531 1620.660156 471.179688 1631.503906 461.140625 Z M 1572.144531 856.558594 C 1569.671875 855.753906 1569.671875 854.082031 1572.144531 850.734375 C 1573.820312 851.539062 1573.820312 853.210938 1572.144531 856.558594 Z M 1592.222656 503.769531 L 1593.894531 501.226562 L 1593.894531 502.09375 C 1595.566406 498.75 1598.109375 496.207031 1598.914062 495.402344 L 1600.585938 493.730469 L 1598.914062 496.207031 L 1598.109375 497.074219 L 1596.4375 498.75 L 1595.566406 499.550781 C 1595.566406 499.550781 1596.4375 499.550781 1596.4375 498.75 L 1595.566406 499.550781 L 1594.765625 501.226562 Z M 1506.097656 618.265625 L 1509.445312 613.246094 L 1509.445312 614.113281 Z M 1504.425781 620.808594 L 1506.097656 618.265625 C 1506.097656 619.132812 1505.296875 619.9375 1504.425781 620.808594 Z M 1598.109375 496.207031 L 1598.914062 495.402344 C 1598.914062 495.402344 1598.914062 496.207031 1598.109375 496.207031 Z M 1598.109375 496.207031 " fill-opacity="1" fill-rule="nonzero"/><path fill="#ffffff" d="M 277.015625 1343.433594 L 198.589844 1343.433594 L 176.105469 1256.976562 L 171.554688 1256.976562 L 150.941406 1343.433594 L 72.246094 1343.433594 L 16.039062 1104.40625 L 87.773438 1104.40625 L 91.519531 1141.34375 L 114.808594 1269.289062 L 119.089844 1269.289062 L 146.929688 1160.347656 L 134.347656 1104.40625 L 209.027344 1104.40625 L 214.113281 1148.839844 L 239.273438 1269.289062 L 243.824219 1269.289062 L 273 1145.894531 L 279.425781 1104.40625 L 347.414062 1104.40625 Z M 277.015625 1343.433594 " fill-opacity="1" fill-rule="nonzero"/><path fill="#ffffff" d="M 450.042969 1343.433594 L 446.03125 1317.203125 L 417.925781 1316.402344 L 395.976562 1317.472656 L 391.691406 1343.433594 L 325.042969 1343.433594 L 383.664062 1153.925781 L 466.371094 1153.925781 L 519.640625 1343.433594 Z M 422.207031 1267.683594 L 436.394531 1267.417969 L 425.6875 1214.417969 L 421.671875 1214.417969 L 407.753906 1267.417969 Z M 422.207031 1267.683594 " fill-opacity="1" fill-rule="nonzero"/><path fill="#ffffff" d="M 625.566406 1294.988281 L 628.511719 1343.433594 L 560.257812 1343.433594 L 563.46875 1294.988281 L 563.199219 1288.832031 L 498.960938 1153.925781 L 570.695312 1153.925781 L 575.78125 1171.324219 L 595.054688 1220.308594 L 598.53125 1220.308594 L 621.285156 1174 L 628.511719 1153.925781 L 698.375 1153.925781 L 626.101562 1286.957031 Z M 625.566406 1294.988281 " fill-opacity="1" fill-rule="nonzero"/><path fill="#ffffff" d="M 872.785156 1279.996094 L 875.195312 1343.433594 L 800.78125 1343.433594 L 752.066406 1256.175781 L 748.320312 1256.175781 L 747.785156 1273.304688 L 750.460938 1343.433594 L 688.359375 1343.433594 L 691.839844 1288.027344 L 688.359375 1153.925781 L 763.042969 1153.925781 L 811.757812 1241.183594 L 815.773438 1241.183594 L 813.632812 1156.601562 L 876.535156 1152.855469 Z M 872.785156 1279.996094 " fill-opacity="1" fill-rule="nonzero"/><path fill="#ffffff" d="M 1036.976562 1289.097656 L 1040.722656 1293.648438 L 1036.710938 1343.433594 L 890.027344 1343.433594 L 893.503906 1288.296875 L 890.027344 1153.925781 L 1039.386719 1153.925781 L 1042.867188 1158.742188 L 1038.851562 1208.527344 L 989.0625 1206.386719 L 958.015625 1206.386719 L 957.746094 1222.714844 L 987.191406 1222.714844 L 1019.3125 1221.644531 L 1023.058594 1226.464844 L 1019.042969 1276.25 L 982.90625 1275.179688 L 956.140625 1275.179688 L 955.871094 1281.335938 L 956.140625 1290.972656 L 985.316406 1290.972656 Z M 1036.976562 1289.097656 " fill-opacity="1" fill-rule="nonzero"/><path fill="#ffffff" d="M 1227.003906 1249.214844 C 1244.671875 1276.917969 1262.335938 1302.480469 1280.003906 1326.035156 L 1278.933594 1334.066406 C 1253.90625 1341.761719 1229.210938 1346.378906 1204.789062 1347.984375 L 1197.828125 1341.828125 L 1193.277344 1332.726562 C 1191.269531 1328.847656 1187.386719 1320.550781 1181.5 1307.835938 C 1175.609375 1295.1875 1170.390625 1283.34375 1165.976562 1272.234375 L 1141.347656 1272.234375 L 1143.757812 1343.433594 L 1069.613281 1343.433594 L 1073.359375 1273.304688 L 1069.613281 1104.40625 L 1182.839844 1104.136719 C 1209.738281 1104.136719 1230.484375 1110.496094 1244.9375 1123.140625 C 1259.527344 1135.855469 1266.886719 1154.125 1266.886719 1178.015625 C 1266.886719 1191.933594 1263.273438 1205.050781 1256.179688 1217.363281 C 1249.21875 1229.675781 1239.449219 1240.316406 1227.003906 1249.214844 Z M 1188.996094 1185.242188 C 1188.996094 1175.472656 1186.386719 1168.109375 1181.230469 1163.292969 C 1176.214844 1158.476562 1167.984375 1155.933594 1156.605469 1155.53125 L 1143.492188 1156.601562 L 1141.882812 1218.164062 L 1168.917969 1219.769531 C 1175.878906 1216.558594 1180.964844 1212.277344 1184.175781 1206.921875 C 1187.386719 1201.4375 1188.996094 1194.207031 1188.996094 1185.242188 Z M 1188.996094 1185.242188 " fill-opacity="1" fill-rule="nonzero"/><path fill="#ffffff" d="M 1340.734375 1281.335938 L 1343.679688 1343.433594 L 1274.890625 1343.433594 L 1278.367188 1288.296875 L 1274.890625 1153.925781 L 1344.75 1153.925781 Z M 1340.734375 1281.335938 " fill-opacity="1" fill-rule="nonzero"/><path fill="#ffffff" d="M 1455.109375 1150.710938 C 1472.574219 1150.710938 1489.234375 1152.71875 1505.164062 1156.601562 L 1493.652344 1210.9375 L 1489.101562 1213.882812 C 1484.285156 1211.609375 1478.394531 1209.734375 1471.4375 1208.261719 C 1464.476562 1206.855469 1458.1875 1206.121094 1452.699219 1206.121094 C 1441.257812 1206.121094 1433.160156 1208.796875 1428.339844 1214.148438 C 1423.523438 1219.503906 1421.113281 1229.007812 1421.113281 1242.523438 C 1421.113281 1259.519531 1423.925781 1271.832031 1429.679688 1279.460938 C 1435.566406 1286.957031 1444.804688 1290.703125 1457.515625 1290.703125 C 1462.667969 1290.703125 1468.625 1290.371094 1475.449219 1289.632812 C 1482.410156 1288.761719 1488.300781 1287.894531 1493.117188 1286.957031 L 1498.738281 1290.167969 L 1493.117188 1344.238281 C 1482.007812 1346.179688 1468.289062 1347.183594 1451.894531 1347.183594 C 1417.433594 1347.183594 1391.671875 1339.019531 1374.539062 1322.558594 C 1357.410156 1306.160156 1348.84375 1282.273438 1348.84375 1250.820312 C 1348.84375 1219.101562 1358.011719 1194.476562 1376.414062 1176.945312 C 1394.949219 1159.480469 1421.179688 1150.710938 1455.109375 1150.710938 Z M 1455.109375 1150.710938 " fill-opacity="1" fill-rule="nonzero"/><path fill="#ffffff" d="M 1686.09375 1281.335938 L 1688.5 1343.433594 L 1619.976562 1343.433594 L 1623.191406 1288.296875 L 1622.921875 1277.589844 L 1593.210938 1277.054688 L 1567.515625 1277.589844 L 1567.515625 1281.335938 L 1570.457031 1343.433594 L 1501.667969 1343.433594 L 1505.148438 1288.296875 L 1501.667969 1153.925781 L 1571.53125 1153.925781 L 1569.386719 1222.179688 L 1596.957031 1222.984375 L 1621.851562 1222.179688 L 1619.976562 1153.925781 L 1689.839844 1153.925781 Z M 1686.09375 1281.335938 " fill-opacity="1" fill-rule="nonzero"/><path fill="#ffffff" d="M 615.515625 1524.136719 L 587.410156 1684.203125 L 567.332031 1684.203125 L 592.496094 1545.015625 L 520.222656 1684.203125 L 495.0625 1684.203125 L 472.308594 1543.140625 L 447.953125 1684.203125 L 427.878906 1684.203125 L 456.25 1524.136719 L 489.171875 1524.136719 L 511.65625 1663.324219 L 582.859375 1524.136719 Z M 615.515625 1524.136719 " fill-opacity="1" fill-rule="nonzero"/><path fill="#ffffff" d="M 756.296875 1540.464844 L 746.394531 1596.140625 L 823.484375 1596.140625 L 820.804688 1612.46875 L 743.449219 1612.46875 L 733.546875 1667.875 L 820.269531 1667.875 L 817.328125 1684.203125 L 710.792969 1684.203125 L 739.167969 1524.136719 L 843.289062 1524.136719 L 840.078125 1540.464844 Z M 756.296875 1540.464844 " fill-opacity="1" fill-rule="nonzero"/><path fill="#ffffff" d="M 1020.035156 1524.9375 C 1037.167969 1526.546875 1051.152344 1533.171875 1062.0625 1544.746094 C 1072.902344 1556.390625 1078.386719 1572.585938 1078.386719 1593.460938 C 1078.386719 1604.035156 1076.582031 1614.273438 1073.035156 1624.246094 C 1069.421875 1634.28125 1064.269531 1643.449219 1057.511719 1651.816406 C 1050.683594 1660.246094 1041.851562 1667.273438 1031.011719 1672.960938 C 1020.101562 1678.714844 1007.859375 1682.195312 994.339844 1683.398438 C 988.785156 1683.933594 981.894531 1684.203125 973.730469 1684.203125 L 930.632812 1684.203125 L 959.007812 1524.136719 L 999.960938 1524.136719 C 1008.125 1524.136719 1014.816406 1524.402344 1020.035156 1524.9375 Z M 995.945312 1667.070312 C 1009.464844 1665.332031 1020.90625 1660.648438 1030.207031 1653.152344 C 1039.441406 1645.660156 1046.066406 1636.960938 1050.015625 1626.921875 C 1054.097656 1616.75 1056.171875 1605.707031 1056.171875 1593.730469 C 1056.171875 1578.070312 1052.492188 1565.824219 1045.199219 1557.058594 C 1038.039062 1548.160156 1028.601562 1543.007812 1016.824219 1541.535156 C 1012.339844 1540.867188 1006.453125 1540.464844 999.160156 1540.464844 L 975.871094 1540.464844 L 953.386719 1667.875 L 978.011719 1667.875 C 985.507812 1667.875 991.460938 1667.605469 995.945312 1667.070312 Z M 995.945312 1667.070312 " fill-opacity="1" fill-rule="nonzero"/><path fill="#ffffff" d="M 1197.925781 1684.203125 L 1177.851562 1684.203125 L 1206.222656 1524.136719 L 1226.03125 1524.136719 Z M 1197.925781 1684.203125 " fill-opacity="1" fill-rule="nonzero"/><path fill="#ffffff" d="M 1415.671875 1627.722656 L 1357.054688 1627.722656 L 1327.875 1684.203125 L 1305.125 1684.203125 L 1391.046875 1524.136719 L 1419.152344 1524.136719 L 1446.1875 1684.203125 L 1424.503906 1684.203125 Z M 1413.261719 1611.398438 L 1402.289062 1539.929688 L 1365.351562 1611.398438 Z M 1413.261719 1611.398438 " fill-opacity="1" fill-rule="nonzero"/></svg>