<svg xmlns="http://www.w3.org/2000/svg" xmlns:xlink="http://www.w3.org/1999/xlink" width="500" zoomAndPan="magnify" viewBox="0 0 375 374.999991" height="500" preserveAspectRatio="xMidYMid meet" version="1.0"><defs><g/></defs><g fill="#ffffff" fill-opacity="1"><g transform="translate(137.496623, 172.688852)"><g><path d="M 44.800781 -34.648438 C 44.75 -34.746094 44.800781 -34.699219 44.800781 -34.699219 C 44.558594 -35.332031 43.726562 -36.308594 42.945312 -36.164062 C 42.359375 -36.066406 42.554688 -35.820312 42.3125 -35.527344 C 41.335938 -34.355469 40.214844 -33.332031 39.285156 -32.160156 C 36.847656 -29.085938 34.746094 -25.71875 32.648438 -22.398438 C 30.550781 -19.082031 28.597656 -15.761719 26.988281 -12.199219 C 26.304688 -10.6875 25.378906 -9.320312 24.644531 -7.855469 C 23.621094 -5.855469 22.742188 -3.757812 21.863281 -1.707031 C 21.863281 -1.804688 21.960938 -4.050781 21.816406 -3.953125 C 21.71875 -3.855469 21.667969 -3.804688 21.667969 -3.757812 C 21.765625 -4.832031 22.15625 -6.148438 22.351562 -7.320312 C 22.644531 -9.027344 22.789062 -10.738281 22.9375 -12.445312 C 23.035156 -12.980469 23.914062 -18.300781 24.449219 -20.9375 C 24.109375 -19.617188 23.71875 -17.765625 23.621094 -17.570312 C 24.058594 -19.863281 24.546875 -22.15625 25.328125 -24.402344 C 25.28125 -24.207031 25.28125 -24.011719 25.378906 -24.011719 C 25.523438 -24.011719 26.058594 -25.574219 25.914062 -25.621094 L 25.71875 -25.476562 C 25.914062 -25.914062 26.304688 -25.964844 26.253906 -26.695312 C 26.207031 -27.378906 25.867188 -28.011719 25.328125 -28.453125 C 24.9375 -28.84375 24.207031 -29.28125 23.621094 -29.136719 C 23.082031 -28.988281 23.132812 -28.695312 22.9375 -28.453125 C 21.082031 -26.109375 18.835938 -23.570312 17.03125 -20.984375 C 16.445312 -20.203125 16.152344 -19.375 15.566406 -18.546875 C 14.496094 -17.179688 13.519531 -15.714844 12.394531 -14.398438 C 11.273438 -12.980469 10.640625 -11.515625 9.613281 -10.101562 L 7.027344 -6.394531 C 7.90625 -9.613281 8.441406 -12.882812 9.078125 -16.152344 C 9.222656 -16.984375 10.835938 -25.867188 10.835938 -25.867188 C 10.785156 -25.867188 9.808594 -20.691406 9.664062 -20.15625 C 10.199219 -22.984375 10.785156 -25.914062 11.078125 -28.792969 C 11.078125 -28.84375 11.03125 -27.914062 11.078125 -27.964844 C 11.320312 -27.964844 11.417969 -30.011719 11.222656 -29.964844 C 11.175781 -29.914062 11.128906 -29.867188 11.128906 -29.816406 C 11.128906 -30.257812 11.371094 -30.597656 11.371094 -31.234375 C 11.320312 -32.257812 11.175781 -33.234375 10.738281 -34.160156 C 10.394531 -34.894531 9.90625 -35.675781 9.078125 -35.820312 C 8.882812 -35.871094 8.832031 -35.722656 8.589844 -35.773438 C 8.34375 -35.773438 8.296875 -35.96875 8.050781 -35.96875 C 6.980469 -35.917969 6.148438 -34.894531 5.757812 -34.015625 C 5.222656 -32.992188 4.585938 -29.476562 6.832031 -30.988281 C 6.832031 -30.746094 6.6875 -28.402344 6.636719 -28.257812 C 6.734375 -28.304688 6.734375 -28.402344 6.785156 -28.5 C 6.734375 -28.011719 6.6875 -27.574219 6.589844 -27.132812 C 6.539062 -27.183594 6.636719 -27.523438 6.539062 -27.523438 C 6.101562 -27.523438 5.660156 -23.277344 5.660156 -22.742188 C 5.613281 -21.765625 5.417969 -20.886719 5.171875 -19.910156 C 5.074219 -19.472656 4.976562 -19.03125 4.929688 -18.59375 C 4.878906 -18.546875 4.832031 -17.421875 4.976562 -17.714844 C 4.976562 -17.617188 4.929688 -17.570312 4.929688 -17.472656 C 4.878906 -17.519531 4.878906 -17.570312 4.878906 -17.617188 C 4.832031 -17.570312 4.585938 -16.007812 4.539062 -15.957031 C 4.292969 -15.128906 3.953125 -14.398438 3.710938 -13.566406 C 3.171875 -11.613281 2.878906 -9.613281 2.390625 -7.660156 C 3.660156 -11.515625 4.832031 -15.617188 5.660156 -19.570312 C 6.296875 -22.742188 7.175781 -26.15625 7.417969 -29.429688 C 7.175781 -25.425781 6.394531 -21.375 5.417969 -17.570312 C 4.832031 -15.226562 4.195312 -12.882812 3.5625 -10.542969 C 2.929688 -8.148438 1.855469 -5.855469 1.269531 -3.417969 C 0.976562 -2.292969 0.730469 -1.414062 0.339844 -0.292969 C -0.046875 0.828125 -0.339844 2.050781 0.878906 2.78125 C 2.148438 3.515625 4.441406 3.222656 5.074219 1.757812 C 5.171875 1.511719 5.222656 1.269531 5.269531 1.023438 C 5.710938 -0.390625 6.6875 -1.660156 7.417969 -2.929688 C 8.734375 -5.222656 10.101562 -7.515625 11.613281 -9.710938 C 13.175781 -12.101562 14.789062 -14.398438 16.25 -16.835938 C 16.933594 -17.960938 17.960938 -18.933594 18.738281 -20.007812 L 20.59375 -22.398438 C 20.496094 -22.15625 19.910156 -19.472656 19.863281 -19.472656 C 19.910156 -19.472656 19.910156 -19.519531 19.960938 -19.519531 C 19.863281 -19.226562 19.8125 -18.886719 19.765625 -18.59375 C 19.667969 -18.59375 19.8125 -18.886719 19.714844 -18.886719 C 19.082031 -18.984375 18.691406 -14.882812 18.691406 -14.59375 C 18.59375 -13.8125 18.351562 -13.03125 18.203125 -12.25 C 18.058594 -11.613281 18.15625 -11.078125 18.15625 -10.640625 C 18.105469 -10.738281 18.105469 -10.101562 18.058594 -9.957031 C 18.007812 -9.417969 17.863281 -9.222656 17.714844 -8.734375 C 17.324219 -7.613281 17.226562 -6.296875 17.179688 -5.171875 C 17.128906 -3.027344 16.886719 -0.683594 17.179688 1.414062 C 17.375 3.074219 18.984375 4.488281 20.691406 4.34375 C 21.621094 4.246094 21.816406 3.855469 22.011719 3.074219 C 22.15625 2.390625 22.496094 1.707031 22.839844 0.976562 C 24.058594 -1.609375 25.28125 -4.246094 26.644531 -6.734375 C 27.523438 -8.34375 28.011719 -9.957031 28.890625 -11.46875 C 30.0625 -13.519531 31.183594 -15.566406 32.453125 -17.519531 C 33.039062 -18.449219 33.476562 -19.375 33.867188 -20.300781 C 34.40625 -21.472656 35.429688 -22.496094 36.164062 -23.570312 C 36.992188 -24.742188 37.722656 -25.914062 38.652344 -27.085938 C 39.480469 -28.109375 40.507812 -29.136719 41.1875 -30.257812 C 41.480469 -30.746094 41.285156 -30.746094 41.726562 -31.183594 C 42.019531 -31.476562 42.457031 -31.820312 42.847656 -32.113281 C 43.628906 -32.746094 45.191406 -33.382812 44.800781 -34.648438 Z M 23.132812 -15.761719 C 23.082031 -15.617188 23.230469 -15.957031 23.375 -16.300781 C 23.375 -16.347656 23.425781 -16.398438 23.425781 -16.445312 C 23.277344 -15.761719 23.132812 -15.226562 23.035156 -14.640625 C 23.035156 -14.980469 22.984375 -15.273438 23.132812 -15.761719 Z M 24.890625 -22.351562 C 24.839844 -22.351562 24.742188 -22.109375 24.644531 -21.621094 C 24.742188 -22.058594 24.890625 -22.351562 24.890625 -22.351562 Z M 24.890625 -22.351562 "/></g></g></g><g fill="#ffffff" fill-opacity="1"><g transform="translate(170.532121, 172.688852)"><g><path d="M 26.011719 -36.796875 C 24.5 -36.359375 22.984375 -34.503906 21.914062 -33.429688 C 21.230469 -32.796875 20.546875 -32.113281 19.910156 -31.378906 C 19.472656 -30.890625 18.351562 -29.914062 18.253906 -29.234375 C 18.300781 -29.183594 18.300781 -29.183594 18.351562 -29.183594 L 17.667969 -28.304688 C 17.617188 -28.257812 18.058594 -28.988281 18.105469 -29.039062 C 17.863281 -28.941406 17.472656 -28.0625 17.472656 -28.0625 C 16.105469 -26.304688 14.59375 -24.695312 13.324219 -22.839844 C 11.90625 -20.742188 10.738281 -18.59375 9.613281 -16.347656 C 10.199219 -18.59375 11.03125 -20.742188 11.859375 -22.886719 L 10.6875 -20.398438 L 11.175781 -21.523438 C 9.566406 -18.546875 8.199219 -15.421875 7.222656 -12.199219 C 9.175781 -18.789062 11.90625 -25.671875 16.203125 -32.746094 C 16.054688 -32.453125 15.910156 -32.0625 15.957031 -32.0625 C 16.152344 -32.015625 17.128906 -33.917969 16.984375 -33.964844 L 16.835938 -33.867188 C 17.128906 -34.40625 17.277344 -34.699219 16.984375 -35.480469 C 16.691406 -36.261719 15.957031 -37.625 14.933594 -37.1875 C 14.300781 -36.945312 13.761719 -35.773438 13.519531 -35.285156 C 13.371094 -35.039062 13.324219 -34.648438 13.175781 -34.453125 C 12.980469 -34.160156 12.640625 -34.015625 12.347656 -33.625 C 11.710938 -32.648438 11.273438 -31.476562 10.835938 -30.402344 C 10.589844 -29.816406 7.90625 -24.011719 8.003906 -23.960938 C 8.101562 -24.011719 8.148438 -24.109375 8.199219 -24.207031 C 8.050781 -23.765625 7.855469 -23.328125 7.660156 -22.886719 C 7.613281 -22.9375 7.808594 -23.277344 7.710938 -23.277344 C 7.273438 -23.375 5.808594 -19.324219 5.710938 -18.933594 C 5.515625 -18.007812 5.269531 -17.179688 4.878906 -16.25 C 4.636719 -15.664062 4.390625 -15.078125 4.195312 -14.496094 C 4.195312 -14.445312 3.953125 -13.226562 4.148438 -13.664062 C 4.148438 -13.519531 4.097656 -13.421875 4.050781 -13.273438 C 4.050781 -13.324219 4.050781 -13.421875 4 -13.46875 C 3.902344 -13.421875 3.613281 -11.957031 3.515625 -11.761719 C 3.171875 -11.03125 2.78125 -10.296875 2.488281 -9.515625 C 1.757812 -7.464844 1.414062 -5.367188 0.925781 -3.222656 C 0.585938 -1.609375 -0.488281 0.976562 0.242188 2.585938 C 0.925781 4.097656 3.269531 4 4.34375 2.878906 C 4.34375 2.976562 4.390625 3.027344 4.441406 3.074219 C 4.929688 -0.585938 6.34375 -4.292969 7.808594 -7.710938 C 8.101562 -7.175781 7.953125 -6.929688 8.148438 -6.296875 C 8.394531 -5.320312 9.027344 -4.488281 9.46875 -3.613281 C 9.664062 -3.222656 11.859375 1.074219 11.957031 1.023438 C 12.003906 0.925781 11.957031 0.828125 11.957031 0.78125 C 12.101562 1.121094 12.296875 1.414062 12.492188 1.757812 C 12.445312 1.757812 12.347656 1.511719 12.25 1.5625 C 11.859375 1.855469 13.910156 4.734375 14.152344 4.929688 C 14.691406 5.5625 15.175781 6.148438 15.617188 6.785156 C 15.910156 7.175781 16.152344 7.5625 16.496094 7.855469 C 16.542969 7.90625 17.128906 8.34375 17.03125 8.148438 C 17.082031 8.199219 17.179688 8.246094 17.226562 8.34375 C 17.226562 8.34375 17.179688 8.296875 17.128906 8.296875 C 17.082031 8.441406 19.421875 10.640625 19.617188 10.785156 C 20.496094 11.320312 21.472656 11.664062 22.496094 11.566406 C 25.28125 11.320312 27.425781 8.929688 28.988281 6.929688 C 29.378906 6.441406 29.574219 6.050781 29.527344 5.515625 C 29.429688 4.195312 28.941406 4.832031 28.5 5.320312 C 27.671875 6.199219 26.109375 7.175781 24.839844 7.175781 C 24.351562 7.222656 23.863281 7.027344 23.375 6.832031 C 23.179688 6.734375 21.472656 5.710938 21.472656 5.757812 C 21.523438 5.855469 21.570312 6.003906 21.667969 6.101562 C 20.839844 5.417969 19.960938 4.195312 19.179688 3.320312 L 15.8125 -0.535156 C 15.371094 -1.023438 12.25 -5.464844 10.882812 -7.710938 L 12.445312 -4.929688 C 11.566406 -6.296875 10.785156 -7.710938 10.003906 -9.175781 C 12.445312 -9.027344 15.371094 -10.933594 17.375 -12.199219 C 19.179688 -13.421875 20.546875 -15.371094 22.109375 -17.082031 C 25.230469 -20.351562 28.160156 -24.351562 28.988281 -28.941406 C 27.867188 -22.59375 24.058594 -17.617188 19.324219 -13.519531 C 20.886719 -13.910156 22.449219 -15.714844 23.523438 -16.835938 C 24.742188 -18.007812 25.816406 -19.375 26.839844 -20.742188 C 28.011719 -22.351562 28.988281 -24.109375 29.671875 -26.011719 C 29.964844 -26.742188 30.988281 -28.890625 30.792969 -29.867188 C 30.792969 -29.867188 30.648438 -29.527344 30.550781 -29.28125 C 30.695312 -30.109375 30.792969 -30.890625 30.746094 -31.769531 C 30.792969 -31.574219 30.890625 -31.28125 30.84375 -31.234375 C 30.941406 -31.28125 30.890625 -31.917969 30.890625 -32.160156 C 30.890625 -32.160156 30.84375 -32.503906 30.890625 -32.40625 C 30.695312 -34.746094 28.550781 -37.527344 26.011719 -36.796875 Z M 25.964844 -30.84375 C 25.914062 -30.648438 25.914062 -30.695312 25.964844 -30.792969 C 25.71875 -27.425781 23.816406 -24.109375 21.914062 -21.425781 C 20.9375 -20.007812 19.8125 -18.691406 18.640625 -17.421875 C 18.105469 -16.886719 17.519531 -16.347656 16.933594 -15.859375 C 16.496094 -15.421875 15.566406 -14.933594 15.128906 -14.398438 C 15.519531 -14.789062 16.398438 -15.273438 16.789062 -15.566406 C 17.570312 -16.25 18.351562 -17.03125 19.082031 -17.765625 C 20.253906 -19.03125 21.375 -20.351562 22.351562 -21.765625 C 19.375 -17.324219 15.273438 -13.46875 10.347656 -11.417969 C 10.738281 -11.664062 11.710938 -12.152344 11.710938 -12.199219 C 11.613281 -12.296875 9.664062 -11.417969 9.46875 -11.320312 C 10.101562 -12.589844 10.738281 -13.859375 11.417969 -15.128906 C 11.613281 -15.421875 13.175781 -18.398438 13.175781 -18.398438 C 13.078125 -18.398438 12.980469 -18.351562 12.933594 -18.203125 C 15.078125 -21.667969 17.910156 -25.132812 20.546875 -28.304688 C 21.375 -29.28125 26.207031 -35.578125 25.964844 -30.890625 Z M 14.496094 -28.890625 C 14.59375 -29.085938 15.03125 -30.207031 14.933594 -30.011719 L 13.664062 -27.230469 C 13.957031 -27.769531 14.25 -28.304688 14.496094 -28.890625 Z M 10.296875 -8.929688 C 10.199219 -8.882812 10.492188 -8.394531 10.882812 -7.710938 C 10.542969 -8.394531 10.25 -8.929688 10.296875 -8.929688 Z M 13.761719 -2.976562 C 13.761719 -2.976562 13.761719 -3.027344 13.8125 -2.929688 L 13.8125 -2.878906 Z M 13.761719 -2.976562 C 13.714844 -2.976562 13.714844 -3.027344 13.664062 -3.074219 C 13.714844 -3.027344 13.714844 -2.976562 13.761719 -2.976562 Z M 12.492188 -17.519531 C 12.492188 -17.570312 12.542969 -17.570312 12.542969 -17.617188 C 12.542969 -17.570312 12.492188 -17.519531 12.492188 -17.519531 Z M 12.492188 -17.519531 "/></g></g></g><g fill="#ffffff" fill-opacity="1"><g transform="translate(196.83364, 172.688852)"><g><path d="M 36.261719 8.246094 C 34.894531 8.734375 32.648438 8.980469 31.28125 8.246094 C 29.867188 7.464844 30.402344 5.320312 30.695312 4.050781 C 31.28125 1.414062 32.308594 -1.171875 33.332031 -3.710938 C 33.917969 -5.027344 34.453125 -6.394531 35.039062 -7.757812 C 35.1875 -8.050781 36.457031 -11.222656 36.40625 -11.222656 C 36.308594 -11.222656 36.164062 -11.078125 36.066406 -10.882812 C 37.773438 -14.445312 40.652344 -18.398438 39.871094 -22.644531 C 39.53125 -24.449219 38.261719 -26.253906 36.261719 -26.207031 C 34.550781 -26.207031 32.992188 -24.9375 31.820312 -23.863281 C 29.625 -21.914062 27.816406 -19.617188 26.109375 -17.277344 C 25.914062 -17.03125 25.132812 -15.859375 24.253906 -14.496094 C 24.695312 -15.226562 25.28125 -15.910156 25.769531 -16.59375 C 23.71875 -13.714844 21.914062 -10.6875 20.15625 -7.660156 C 21.523438 -12.25 23.765625 -16.496094 25.671875 -20.839844 C 26.402344 -22.449219 27.621094 -23.914062 28.304688 -25.574219 C 29.039062 -27.378906 28.597656 -29.671875 27.378906 -31.183594 C 24.695312 -34.453125 20.839844 -28.792969 19.226562 -27.085938 C 15.957031 -23.621094 13.226562 -19.519531 10.6875 -15.566406 C 11.03125 -16.640625 11.222656 -17.667969 11.613281 -18.738281 C 12.101562 -20.105469 12.640625 -21.425781 13.078125 -22.789062 C 13.566406 -24.207031 14.007812 -25.671875 14.445312 -27.085938 C 14.882812 -28.5 15.371094 -30.402344 15.03125 -31.917969 C 14.789062 -32.992188 14.347656 -34.503906 13.566406 -35.332031 C 12.347656 -36.652344 10.640625 -36.554688 9.078125 -36.066406 C 7.660156 -35.625 6.441406 -34.941406 5.320312 -34.015625 C 4.734375 -33.476562 4.195312 -32.941406 3.660156 -32.355469 L 3.171875 -31.671875 C 2.878906 -31.28125 2.929688 -30.890625 2.78125 -30.550781 C 2.292969 -29.476562 1.464844 -28.648438 1.121094 -27.476562 C 0.78125 -26.15625 0.683594 -24.304688 1.464844 -23.132812 C 1.855469 -22.59375 2.488281 -22.207031 3.074219 -22.691406 C 3.417969 -23.035156 3.269531 -23.375 3.320312 -23.765625 C 3.367188 -24.058594 3.515625 -24.839844 3.710938 -25.328125 C 4.585938 -27.71875 5.90625 -30.109375 7.660156 -31.964844 C 8.394531 -32.796875 9.273438 -33.574219 10.347656 -33.867188 C 11.808594 -34.210938 11.859375 -33.039062 11.664062 -31.867188 L 11.371094 -30.0625 L 11.371094 -30.550781 C 9.957031 -25.28125 7.222656 -20.398438 5.367188 -15.324219 C 4.441406 -12.835938 3.367188 -10.492188 2.34375 -8.050781 C 1.316406 -5.613281 0.144531 -2.734375 0 -0.046875 C -0.046875 0.878906 0.144531 1.804688 0.878906 2.390625 C 1.707031 3.074219 2.976562 3.125 3.613281 2.246094 C 4.097656 1.5625 4.34375 0.339844 4.636719 -0.4375 C 5.125 -1.707031 5.5625 -2.976562 6.101562 -4.195312 C 6.589844 -5.515625 7.417969 -6.6875 8.148438 -7.90625 C 9.710938 -10.445312 11.273438 -12.980469 12.933594 -15.46875 C 14.496094 -17.863281 16.054688 -20.203125 17.765625 -22.449219 C 19.472656 -24.644531 21.179688 -26.890625 23.425781 -28.550781 C 23.765625 -28.792969 24.9375 -29.722656 25.425781 -29.527344 C 25.816406 -29.378906 25.425781 -28.648438 25.28125 -28.257812 C 24.449219 -26.011719 23.375 -23.71875 22.15625 -21.667969 C 19.324219 -16.886719 16.398438 -11.515625 15.324219 -6.003906 C 14.933594 -4.148438 14.933594 -2.292969 16.398438 -0.878906 C 17.910156 0.535156 18.449219 -0.683594 18.933594 -2.050781 C 19.324219 -3.171875 20.15625 -4.148438 20.742188 -5.171875 C 21.570312 -6.539062 22.351562 -7.953125 23.230469 -9.371094 C 23.765625 -10.152344 24.15625 -11.222656 24.792969 -11.808594 C 25.816406 -12.835938 26.546875 -14.007812 27.378906 -15.175781 C 29.085938 -17.617188 30.792969 -19.960938 32.992188 -21.960938 C 33.527344 -22.449219 34.746094 -23.71875 35.578125 -23.523438 C 36.601562 -23.277344 35.480469 -21.667969 35.527344 -21.035156 L 35.871094 -21.71875 C 35.578125 -20.839844 35.285156 -20.007812 34.941406 -19.179688 C 34.894531 -19.226562 35.089844 -19.8125 35.089844 -19.8125 C 34.894531 -19.863281 33.867188 -17.519531 33.722656 -17.277344 C 32.992188 -15.761719 32.113281 -14.25 31.574219 -12.640625 C 31.039062 -11.175781 30.5 -9.808594 29.867188 -8.394531 L 28.792969 -5.953125 C 28.597656 -5.417969 28.011719 -4.246094 28.160156 -3.660156 C 28.207031 -3.660156 28.257812 -3.660156 28.257812 -3.710938 L 28.011719 -2.832031 C 28.0625 -3.027344 28.109375 -3.464844 28.109375 -3.515625 C 27.914062 -3.367188 27.867188 -2.390625 27.867188 -2.390625 C 26.695312 1.707031 26.207031 6.050781 29.039062 9.710938 C 30.402344 11.46875 32.015625 12.25 34.160156 11.664062 C 35.1875 11.417969 36.164062 10.933594 36.992188 10.25 C 37.480469 9.808594 38.992188 8.492188 38.796875 7.710938 C 38.652344 6.929688 36.75 8.101562 36.261719 8.246094 Z M 29.769531 -6.394531 C 30.207031 -7.273438 30.597656 -8.199219 30.988281 -9.125 C 31.28125 -9.859375 31.476562 -11.175781 31.964844 -11.761719 C 32.113281 -11.710938 32.113281 -11.566406 31.964844 -11.273438 C 31.625 -9.515625 30.648438 -7.5625 29.867188 -5.90625 C 29.234375 -4.488281 28.597656 -3.027344 28.109375 -1.5625 C 28.597656 -3.171875 28.988281 -4.78125 29.769531 -6.394531 Z M 8.148438 -20.984375 C 8.832031 -22.59375 9.371094 -24.304688 10.054688 -25.914062 C 10.347656 -26.597656 10.6875 -27.378906 10.933594 -28.160156 C 10.347656 -25.867188 9.613281 -23.570312 8.539062 -21.375 C 7.515625 -19.277344 6.589844 -17.128906 5.710938 -14.933594 C 6.492188 -16.984375 7.273438 -18.984375 8.148438 -20.984375 Z M 23.765625 -13.761719 C 22.496094 -11.710938 21.132812 -9.613281 21.132812 -9.613281 C 21.277344 -9.566406 23.082031 -12.589844 23.765625 -13.761719 Z M 31.183594 -23.082031 L 29.378906 -21.179688 C 29.964844 -21.863281 30.550781 -22.496094 31.183594 -23.082031 Z M 27.71875 0 C 27.574219 -0.046875 27.574219 -0.144531 27.71875 -0.339844 C 27.816406 -0.292969 27.816406 -0.195312 27.71875 0 Z M 28.890625 -20.59375 L 28.988281 -20.742188 L 28.988281 -20.691406 C 29.085938 -20.886719 29.234375 -21.035156 29.28125 -21.082031 L 29.378906 -21.179688 L 29.28125 -21.035156 L 29.234375 -20.984375 L 29.136719 -20.886719 L 29.085938 -20.839844 C 29.085938 -20.839844 29.136719 -20.839844 29.136719 -20.886719 L 29.085938 -20.839844 L 29.039062 -20.742188 Z M 23.863281 -13.910156 L 24.058594 -14.203125 L 24.058594 -14.152344 Z M 23.765625 -13.761719 L 23.863281 -13.910156 C 23.863281 -13.859375 23.816406 -13.8125 23.765625 -13.761719 Z M 29.234375 -21.035156 L 29.28125 -21.082031 C 29.28125 -21.082031 29.28125 -21.035156 29.234375 -21.035156 Z M 29.234375 -21.035156 "/></g></g></g><g fill="#ffffff" fill-opacity="1"><g transform="translate(133.356866, 201.109748)"><g><path d="M 15.59375 0 L 11.015625 0 L 9.703125 -5.046875 L 9.4375 -5.046875 L 8.234375 0 L 3.640625 0 L 0.359375 -13.953125 L 4.546875 -13.953125 L 4.765625 -11.796875 L 6.125 -4.328125 L 6.375 -4.328125 L 8 -10.6875 L 7.265625 -13.953125 L 11.625 -13.953125 L 11.921875 -11.359375 L 13.390625 -4.328125 L 13.65625 -4.328125 L 15.359375 -11.53125 L 15.734375 -13.953125 L 19.703125 -13.953125 Z M 15.59375 0 "/></g></g></g><g fill="#ffffff" fill-opacity="1"><g transform="translate(151.597957, 201.109748)"><g><path d="M 7.453125 0 L 7.21875 -1.53125 L 5.578125 -1.578125 L 4.296875 -1.515625 L 4.046875 0 L 0.15625 0 L 3.578125 -11.0625 L 8.40625 -11.0625 L 11.515625 0 Z M 5.828125 -4.421875 L 6.65625 -4.4375 L 6.03125 -7.53125 L 5.796875 -7.53125 L 4.984375 -4.4375 Z M 5.828125 -4.421875 "/></g></g></g><g fill="#ffffff" fill-opacity="1"><g transform="translate(161.968753, 201.109748)"><g><path d="M 7.328125 -2.828125 L 7.5 0 L 3.515625 0 L 3.703125 -2.828125 L 3.6875 -3.1875 L -0.0625 -11.0625 L 4.125 -11.0625 L 4.421875 -10.046875 L 5.546875 -7.1875 L 5.75 -7.1875 L 7.078125 -9.890625 L 7.5 -11.0625 L 11.578125 -11.0625 L 7.359375 -3.296875 Z M 7.328125 -2.828125 "/></g></g></g><g fill="#ffffff" fill-opacity="1"><g transform="translate(171.822047, 201.109748)"><g><path d="M 11.90625 -3.703125 L 12.046875 0 L 7.703125 0 L 4.859375 -5.09375 L 4.640625 -5.09375 L 4.609375 -4.09375 L 4.765625 0 L 1.140625 0 L 1.34375 -3.234375 L 1.140625 -11.0625 L 5.5 -11.0625 L 8.34375 -5.96875 L 8.578125 -5.96875 L 8.453125 -10.90625 L 12.125 -11.125 Z M 11.90625 -3.703125 "/></g></g></g><g fill="#ffffff" fill-opacity="1"><g transform="translate(183.5944, 201.109748)"><g><path d="M 9.71875 -3.171875 L 9.9375 -2.90625 L 9.703125 0 L 1.140625 0 L 1.34375 -3.21875 L 1.140625 -11.0625 L 9.859375 -11.0625 L 10.0625 -10.78125 L 9.828125 -7.875 L 6.921875 -8 L 5.109375 -8 L 5.09375 -7.046875 L 6.8125 -7.046875 L 8.6875 -7.109375 L 8.90625 -6.828125 L 8.671875 -3.921875 L 6.5625 -3.984375 L 5 -3.984375 L 4.984375 -3.625 L 5 -3.0625 L 6.703125 -3.0625 Z M 9.71875 -3.171875 "/></g></g></g><g fill="#ffffff" fill-opacity="1"><g transform="translate(192.477384, 201.109748)"><g/></g></g><g fill="#ffffff" fill-opacity="1"><g transform="translate(193.921319, 201.109748)"><g><path d="M 10.484375 -5.5 C 11.515625 -3.882812 12.546875 -2.390625 13.578125 -1.015625 L 13.515625 -0.546875 C 12.054688 -0.0976562 10.613281 0.171875 9.1875 0.265625 L 8.78125 -0.09375 L 8.515625 -0.625 C 8.398438 -0.851562 8.171875 -1.335938 7.828125 -2.078125 C 7.484375 -2.816406 7.179688 -3.507812 6.921875 -4.15625 L 5.484375 -4.15625 L 5.625 0 L 1.296875 0 L 1.515625 -4.09375 L 1.296875 -13.953125 L 7.90625 -13.96875 C 9.476562 -13.96875 10.6875 -13.597656 11.53125 -12.859375 C 12.382812 -12.117188 12.8125 -11.050781 12.8125 -9.65625 C 12.8125 -8.84375 12.601562 -8.078125 12.1875 -7.359375 C 11.78125 -6.640625 11.210938 -6.019531 10.484375 -5.5 Z M 8.265625 -9.234375 C 8.265625 -9.804688 8.113281 -10.234375 7.8125 -10.515625 C 7.519531 -10.796875 7.039062 -10.945312 6.375 -10.96875 L 5.609375 -10.90625 L 5.515625 -7.3125 L 7.09375 -7.21875 C 7.5 -7.40625 7.796875 -7.65625 7.984375 -7.96875 C 8.171875 -8.289062 8.265625 -8.710938 8.265625 -9.234375 Z M 8.265625 -9.234375 "/></g></g></g><g fill="#ffffff" fill-opacity="1"><g transform="translate(206.060238, 201.109748)"><g><path d="M 4.984375 -3.625 L 5.15625 0 L 1.140625 0 L 1.34375 -3.21875 L 1.140625 -11.0625 L 5.21875 -11.0625 Z M 4.984375 -3.625 "/></g></g></g><g fill="#ffffff" fill-opacity="1"><g transform="translate(211.126663, 201.109748)"><g><path d="M 6.59375 -11.25 C 7.613281 -11.25 8.585938 -11.132812 9.515625 -10.90625 L 8.84375 -7.734375 L 8.578125 -7.5625 C 8.296875 -7.695312 7.953125 -7.804688 7.546875 -7.890625 C 7.140625 -7.972656 6.773438 -8.015625 6.453125 -8.015625 C 5.785156 -8.015625 5.3125 -7.859375 5.03125 -7.546875 C 4.75 -7.234375 4.609375 -6.679688 4.609375 -5.890625 C 4.609375 -4.898438 4.773438 -4.179688 5.109375 -3.734375 C 5.453125 -3.296875 5.992188 -3.078125 6.734375 -3.078125 C 7.035156 -3.078125 7.382812 -3.097656 7.78125 -3.140625 C 8.1875 -3.191406 8.53125 -3.242188 8.8125 -3.296875 L 9.140625 -3.109375 L 8.8125 0.046875 C 8.164062 0.160156 7.363281 0.21875 6.40625 0.21875 C 4.394531 0.21875 2.890625 -0.257812 1.890625 -1.21875 C 0.890625 -2.175781 0.390625 -3.570312 0.390625 -5.40625 C 0.390625 -7.257812 0.925781 -8.695312 2 -9.71875 C 3.082031 -10.738281 4.613281 -11.25 6.59375 -11.25 Z M 6.59375 -11.25 "/></g></g></g><g fill="#ffffff" fill-opacity="1"><g transform="translate(219.298087, 201.109748)"><g><path d="M 11.90625 -3.625 L 12.046875 0 L 8.046875 0 L 8.234375 -3.21875 L 8.21875 -3.84375 L 6.484375 -3.875 L 4.984375 -3.84375 L 4.984375 -3.625 L 5.15625 0 L 1.140625 0 L 1.34375 -3.21875 L 1.140625 -11.0625 L 5.21875 -11.0625 L 5.09375 -7.078125 L 6.703125 -7.03125 L 8.15625 -7.078125 L 8.046875 -11.0625 L 12.125 -11.0625 Z M 11.90625 -3.625 "/></g></g></g><g fill="#ffffff" fill-opacity="1"><g transform="translate(157.053583, 221.002104)"><g><path d="M 11.65625 -9.34375 L 10.015625 0 L 8.84375 0 L 10.3125 -8.125 L 6.09375 0 L 4.625 0 L 3.296875 -8.234375 L 1.875 0 L 0.703125 0 L 2.359375 -9.34375 L 4.28125 -9.34375 L 5.59375 -1.21875 L 9.75 -9.34375 Z M 11.65625 -9.34375 "/></g></g></g><g fill="#ffffff" fill-opacity="1"><g transform="translate(173.568574, 221.002104)"><g><path d="M 3.359375 -8.390625 L 2.78125 -5.140625 L 7.28125 -5.140625 L 7.125 -4.1875 L 2.609375 -4.1875 L 2.03125 -0.953125 L 7.09375 -0.953125 L 6.921875 0 L 0.703125 0 L 2.359375 -9.34375 L 8.4375 -9.34375 L 8.25 -8.390625 Z M 3.359375 -8.390625 "/></g></g></g><g fill="#ffffff" fill-opacity="1"><g transform="translate(186.402001, 221.002104)"><g><path d="M 5.921875 -9.296875 C 6.921875 -9.203125 7.738281 -8.816406 8.375 -8.140625 C 9.007812 -7.460938 9.328125 -6.515625 9.328125 -5.296875 C 9.328125 -4.679688 9.222656 -4.082031 9.015625 -3.5 C 8.804688 -2.914062 8.503906 -2.378906 8.109375 -1.890625 C 7.710938 -1.398438 7.195312 -0.988281 6.5625 -0.65625 C 5.925781 -0.320312 5.210938 -0.117188 4.421875 -0.046875 C 4.097656 -0.015625 3.695312 0 3.21875 0 L 0.703125 0 L 2.359375 -9.34375 L 4.75 -9.34375 C 5.226562 -9.34375 5.617188 -9.328125 5.921875 -9.296875 Z M 4.515625 -1 C 5.304688 -1.101562 5.972656 -1.375 6.515625 -1.8125 C 7.054688 -2.25 7.441406 -2.757812 7.671875 -3.34375 C 7.910156 -3.9375 8.03125 -4.582031 8.03125 -5.28125 C 8.03125 -6.195312 7.816406 -6.910156 7.390625 -7.421875 C 6.972656 -7.941406 6.421875 -8.242188 5.734375 -8.328125 C 5.472656 -8.367188 5.128906 -8.390625 4.703125 -8.390625 L 3.34375 -8.390625 L 2.03125 -0.953125 L 3.46875 -0.953125 C 3.90625 -0.953125 4.253906 -0.96875 4.515625 -1 Z M 4.515625 -1 "/></g></g></g><g fill="#ffffff" fill-opacity="1"><g transform="translate(200.832576, 221.002104)"><g><path d="M 1.875 0 L 0.703125 0 L 2.359375 -9.34375 L 3.515625 -9.34375 Z M 1.875 0 "/></g></g></g><g fill="#ffffff" fill-opacity="1"><g transform="translate(209.199408, 221.002104)"><g><path d="M 6.21875 -3.296875 L 2.796875 -3.296875 L 1.09375 0 L -0.234375 0 L 4.78125 -9.34375 L 6.421875 -9.34375 L 8 0 L 6.734375 0 Z M 6.078125 -4.25 L 5.4375 -8.421875 L 3.28125 -4.25 Z M 6.078125 -4.25 "/></g></g></g></svg>